<svg width="14" height="14" viewBox="0 0 14 14" fill="none" xmlns="http://www.w3.org/2000/svg">
<path d="M13 6.5H7.49996V1C7.49996 0.867392 7.44728 0.740215 7.35352 0.646447C7.25975 0.552679 7.13257 0.5 6.99996 0.5C6.86735 0.5 6.74018 0.552679 6.64641 0.646447C6.55264 0.740215 6.49996 0.867392 6.49996 1V6.5H0.999961C0.867353 6.5 0.740176 6.55268 0.646408 6.64645C0.55264 6.74021 0.499961 6.86739 0.499961 7C0.497494 7.06498 0.508985 7.12974 0.533659 7.18991C0.558333 7.25007 0.595618 7.30425 0.643 7.34879C0.690382 7.39333 0.746761 7.42719 0.808337 7.4481C0.869913 7.46901 0.935256 7.47648 0.999961 7.47H6.49996V13C6.49996 13.1326 6.55264 13.2598 6.64641 13.3536C6.74018 13.4473 6.86735 13.5 6.99996 13.5C7.13257 13.5 7.25975 13.4473 7.35352 13.3536C7.44728 13.2598 7.49996 13.1326 7.49996 13V7.5H13C13.1326 7.5 13.2597 7.44732 13.3535 7.35355C13.4473 7.25979 13.5 7.13261 13.5 7C13.5 6.86739 13.4473 6.74021 13.3535 6.64645C13.2597 6.55268 13.1326 6.5 13 6.5Z" fill="white"/>
</svg>
