<svg width="349" height="396" viewBox="0 0 349 396" fill="none" xmlns="http://www.w3.org/2000/svg">
<path d="M195.64 38.83C236.16 39.6 279.74 10.74 318.19 36.2C355.7 61 354.05 105.83 334 141.09C304.81 192.37 258.65 179.66 213.17 201.77C170.17 222.7 150.96 268.69 95.8901 268.07C59.8901 267.67 -4.81993 230.72 1.40007 187.61C5.79007 157.23 46.5001 148.93 58.3201 120.41C75.6001 78.68 39.0901 27.64 91.1001 5.55998C139.75 -15.11 147.49 37.92 195.64 38.83Z" fill="#44DDD0"/>
<path opacity="0.9" d="M195.64 38.83C236.16 39.6 279.74 10.74 318.19 36.2C355.7 61 354.05 105.83 334 141.09C304.81 192.37 258.65 179.66 213.17 201.77C170.17 222.7 150.96 268.69 95.8901 268.07C59.8901 267.67 -4.81993 230.72 1.40007 187.61C5.79007 157.23 46.5001 148.93 58.3201 120.41C75.6001 78.68 39.0901 27.64 91.1001 5.55998C139.75 -15.11 147.49 37.92 195.64 38.83Z" fill="white"/>
<path d="M284.42 152.53L288.67 159.03L294.99 157.72L290.22 149.64L284.42 152.53Z" fill="#9F5B53"/>
<path d="M296.47 96.82C297.37 97.91 298.12 98.88 298.89 99.94C299.66 101 300.4 102.02 301.13 103.08C302.59 105.19 303.98 107.36 305.28 109.59C306.58 111.82 307.84 114.1 308.94 116.49C309.53 117.66 310.03 118.9 310.57 120.11C311.11 121.32 311.57 122.59 311.96 123.9L312.28 124.9L312.44 125.39C312.53 125.68 312.62 125.99 312.68 126.28C312.9 127.318 312.974 128.382 312.9 129.44C312.768 131.098 312.408 132.73 311.83 134.29C310.851 136.889 309.597 139.377 308.09 141.71C305.281 146.041 302.023 150.063 298.37 153.71L294 150.29C296.403 146.189 298.599 141.971 300.58 137.65C301.49 135.678 302.216 133.626 302.75 131.52C302.949 130.729 303.04 129.915 303.02 129.1C303.019 128.927 302.981 128.757 302.91 128.6L302.75 128.22L302.42 127.46C300.548 123.253 298.34 119.203 295.82 115.35C294.56 113.35 293.23 111.42 291.89 109.47C290.55 107.52 289.09 105.57 287.77 103.8L296.47 96.82Z" fill="#9F5B53"/>
<path d="M294 91.9C300.89 93.48 308.79 112.25 308.79 112.25L295 121.73C291.557 116.797 288.501 111.605 285.86 106.2C281.77 97.61 287 90.29 294 91.9Z" fill="#44DDD0"/>
<path opacity="0.8" d="M294 91.9C300.89 93.48 308.79 112.25 308.79 112.25L295 121.73C291.557 116.797 288.501 111.605 285.86 106.2C281.77 97.61 287 90.29 294 91.9Z" fill="white"/>
<path d="M289.1 103.87L295.64 121.28L294.99 121.73C294.99 121.73 292.16 117.73 289.1 112.4V103.87Z" fill="#44DDD0"/>
<path opacity="0.6" d="M289.1 103.87L295.64 121.28L294.99 121.73C294.99 121.73 292.16 117.73 289.1 112.4V103.87Z" fill="white"/>
<path d="M271.64 342.64H264.29L263.56 325.63H270.91L271.64 342.64Z" fill="#9F5B53"/>
<path d="M315.75 342.64H308.4L304.71 325.63H312.05L315.75 342.64Z" fill="#9F5B53"/>
<path d="M263.56 325.64L263.94 334.4H271.29L270.91 325.64H263.56Z" fill="#8A4743"/>
<path d="M312.06 325.64H304.71L306.61 334.4H313.96L312.06 325.64Z" fill="#8A4743"/>
<path d="M266.38 155.78C266.38 155.78 274.72 211.92 279.29 232.95C284.29 255.95 303.19 332.71 303.19 332.71H316.65C316.65 332.71 304.19 257.84 301.33 235C298.23 210.25 291.74 155.74 291.74 155.74L266.38 155.78Z" fill="#44DDD0"/>
<path opacity="0.5" d="M266.38 155.78C266.38 155.78 274.72 211.92 279.29 232.95C284.29 255.95 303.19 332.71 303.19 332.71H316.65C316.65 332.71 304.19 257.84 301.33 235C298.23 210.25 291.74 155.74 291.74 155.74L266.38 155.78Z" fill="black"/>
<path opacity="0.4" d="M271.65 175.78C281.29 177.67 280.27 213.62 279.11 232.11C276.33 219.04 272.26 193.89 269.48 176.04C270.153 175.709 270.918 175.617 271.65 175.78V175.78Z" fill="black"/>
<path d="M252.44 155.78C252.44 155.78 251.44 210.7 252.23 233.11C253.06 256.41 261.23 332.71 261.23 332.71H273.67C273.67 332.71 274.13 257.77 274.67 234.89C275.27 209.94 278.28 155.78 278.28 155.78H252.44Z" fill="#44DDD0"/>
<path opacity="0.5" d="M252.44 155.78C252.44 155.78 251.44 210.7 252.23 233.11C253.06 256.41 261.23 332.71 261.23 332.71H273.67C273.67 332.71 274.13 257.77 274.67 234.89C275.27 209.94 278.28 155.78 278.28 155.78H252.44Z" fill="black"/>
<path d="M295.59 148.72L290.22 149.64L294.99 157.72C294.99 157.72 298.73 155.92 299.41 152.43L295.59 148.72Z" fill="#9F5B53"/>
<path d="M260.1 64.6C260.1 65.19 259.79 65.67 259.4 65.67C259.01 65.67 258.7 65.19 258.7 64.6C258.7 64.01 259.01 63.53 259.4 63.53C259.79 63.53 260.1 64 260.1 64.6Z" fill="#263238"/>
<path d="M259.84 65.67C259.132 67.4811 258.18 69.1869 257.01 70.74C257.414 71.0294 257.877 71.2268 258.366 71.3183C258.855 71.4099 259.358 71.3934 259.84 71.27V65.67Z" fill="#892B29"/>
<path d="M262.2 61.32C262.127 61.3209 262.056 61.2961 262 61.25C261.652 60.9827 261.246 60.8024 260.814 60.7242C260.383 60.6459 259.939 60.6719 259.52 60.8C259.478 60.816 259.433 60.8235 259.388 60.8221C259.343 60.8207 259.299 60.8104 259.258 60.7918C259.217 60.7732 259.18 60.7467 259.15 60.7138C259.119 60.6809 259.095 60.6422 259.08 60.6C259.062 60.5581 259.053 60.513 259.053 60.4674C259.053 60.4219 259.062 60.3768 259.079 60.3348C259.097 60.2928 259.123 60.2548 259.156 60.2231C259.189 60.1913 259.227 60.1665 259.27 60.15C259.796 59.9802 260.356 59.9406 260.901 60.0346C261.446 60.1287 261.961 60.3536 262.4 60.69C262.438 60.715 262.471 60.7476 262.496 60.7859C262.521 60.8242 262.538 60.8673 262.545 60.9124C262.553 60.9576 262.551 61.0038 262.54 61.0481C262.528 61.0925 262.508 61.134 262.48 61.17C262.45 61.2172 262.409 61.2559 262.36 61.2822C262.311 61.3085 262.256 61.3216 262.2 61.32V61.32Z" fill="#263238"/>
<path d="M279.23 71.43C278.17 76.81 277.12 86.65 280.88 90.24C280.88 90.24 279.41 95.69 269.42 95.69C258.42 95.69 264.18 90.24 264.18 90.24C270.18 88.81 270.02 84.36 268.97 80.19L279.23 71.43Z" fill="#9F5B53"/>
<path d="M282.32 92.11C283.11 90.39 283.97 88.41 282.18 87.79C280.18 87.11 269.41 86.42 265.69 87.69C265.199 87.826 264.74 88.058 264.34 88.3726C263.939 88.6872 263.605 89.0781 263.357 89.5226C263.109 89.9672 262.951 90.4566 262.893 90.9625C262.835 91.4685 262.878 91.9808 263.02 92.47L282.32 92.11Z" fill="#44DDD0"/>
<path d="M305.45 343C305.139 343.041 304.824 343.02 304.522 342.938C304.219 342.855 303.937 342.713 303.69 342.52C303.601 342.4 303.554 342.254 303.554 342.105C303.554 341.956 303.601 341.81 303.69 341.69C303.745 341.587 303.822 341.497 303.915 341.426C304.008 341.355 304.116 341.305 304.23 341.28C305.31 341.04 307.33 342.42 307.42 342.48C307.448 342.5 307.469 342.528 307.481 342.56C307.494 342.592 307.497 342.626 307.49 342.66C307.484 342.692 307.469 342.722 307.446 342.746C307.422 342.769 307.392 342.784 307.36 342.79C306.732 342.926 306.092 342.996 305.45 343V343ZM304.54 341.6H304.32C304.252 341.614 304.189 341.643 304.133 341.684C304.078 341.726 304.032 341.779 304 341.84C303.84 342.12 303.94 342.24 304 342.28C304.31 342.7 305.81 342.7 306.91 342.52C306.197 342.047 305.387 341.74 304.54 341.62V341.6Z" fill="#44DDD0"/>
<path d="M307.33 342.82H307.25C306.49 342.4 305.02 340.82 305.17 339.98C305.195 339.85 305.265 339.733 305.367 339.65C305.469 339.566 305.598 339.52 305.73 339.52C305.862 339.506 305.995 339.518 306.122 339.556C306.249 339.594 306.367 339.656 306.47 339.74C307.32 340.44 307.47 342.56 307.47 342.65C307.474 342.682 307.469 342.714 307.454 342.742C307.44 342.771 307.418 342.794 307.39 342.81C307.371 342.818 307.35 342.821 307.33 342.82ZM305.85 339.82H305.77C305.54 339.82 305.52 339.96 305.51 340C305.42 340.49 306.36 341.7 307.11 342.27C307.057 341.435 306.758 340.635 306.25 339.97C306.135 339.883 305.994 339.837 305.85 339.84V339.82Z" fill="#44DDD0"/>
<path d="M261.34 343C260.4 343 259.49 342.87 259.18 342.45C259.103 342.338 259.062 342.206 259.062 342.07C259.062 341.934 259.103 341.802 259.18 341.69C259.238 341.587 259.316 341.497 259.411 341.426C259.506 341.356 259.615 341.306 259.73 341.28C260.94 340.95 263.52 342.41 263.63 342.47C263.659 342.489 263.683 342.516 263.697 342.548C263.711 342.58 263.716 342.615 263.71 342.65C263.706 342.686 263.69 342.719 263.664 342.744C263.639 342.77 263.606 342.786 263.57 342.79C262.835 342.929 262.088 342.999 261.34 343V343ZM260.17 341.58C260.061 341.564 259.949 341.564 259.84 341.58C259.77 341.594 259.703 341.622 259.644 341.664C259.586 341.705 259.537 341.758 259.5 341.82C259.38 342.04 259.42 342.14 259.5 342.2C259.84 342.66 261.69 342.69 263.07 342.5C262.171 342.015 261.186 341.709 260.17 341.6V341.58Z" fill="#44DDD0"/>
<path d="M263.56 342.82H263.49C262.6 342.43 260.85 340.82 260.98 340.01C260.98 339.81 261.15 339.57 261.63 339.52C261.808 339.493 261.991 339.506 262.164 339.558C262.337 339.609 262.496 339.699 262.63 339.82C263.57 340.58 263.76 342.56 263.77 342.65C263.774 342.681 263.769 342.712 263.757 342.74C263.745 342.768 263.725 342.792 263.7 342.81C263.679 342.822 263.655 342.828 263.631 342.83C263.607 342.832 263.583 342.828 263.56 342.82ZM261.77 339.82H261.66C261.35 339.82 261.33 339.98 261.32 340.02C261.24 340.52 262.44 341.77 263.32 342.31C263.234 341.47 262.884 340.679 262.32 340.05C262.167 339.918 261.972 339.844 261.77 339.84V339.82Z" fill="#44DDD0"/>
<path d="M307.88 341.79H316.13C316.277 341.791 316.42 341.842 316.534 341.935C316.648 342.027 316.728 342.156 316.76 342.3L318.21 348.83C318.243 348.989 318.24 349.153 318.201 349.311C318.161 349.469 318.087 349.615 317.983 349.74C317.879 349.865 317.749 349.965 317.601 350.033C317.453 350.1 317.292 350.133 317.13 350.13C314.25 350.08 312.85 349.91 309.22 349.91C306.99 349.91 302.39 350.15 299.3 350.15C296.21 350.15 295.82 347.15 297.08 346.82C302.74 345.58 304.87 343.87 306.69 342.25C307.014 341.952 307.439 341.787 307.88 341.79V341.79Z" fill="#263238"/>
<path d="M264.34 341.79H272.34C272.487 341.791 272.63 341.842 272.744 341.935C272.859 342.027 272.938 342.156 272.97 342.3L274.42 348.83C274.455 348.988 274.453 349.151 274.416 349.308C274.379 349.465 274.306 349.611 274.204 349.736C274.102 349.861 273.973 349.962 273.827 350.03C273.681 350.098 273.521 350.132 273.36 350.13C270.47 350.08 266.29 349.91 262.65 349.91C258.4 349.91 254.72 350.15 249.73 350.15C246.73 350.15 245.88 347.15 247.14 346.82C252.89 345.56 257.58 345.43 262.55 342.37C263.079 342.01 263.7 341.809 264.34 341.79V341.79Z" fill="#263238"/>
<path d="M253.85 106.93C250.94 111.23 247.93 115.24 244.68 119.22C241.434 123.241 237.961 127.074 234.28 130.7L232.84 132.06L232.47 132.4L232.22 132.63L231.85 132.95C231.375 133.324 230.87 133.659 230.34 133.95C228.652 134.838 226.794 135.356 224.89 135.47C221.984 135.651 219.067 135.412 216.23 134.76C211.089 133.621 206.103 131.869 201.38 129.54L203.21 124.34C207.896 125.272 212.635 125.917 217.4 126.27C219.493 126.44 221.598 126.353 223.67 126.01C224.264 125.924 224.832 125.705 225.33 125.37C225.33 125.37 225.33 125.3 225.33 125.3L225.4 125.22L225.7 124.89L226.88 123.59C230.01 120.02 233.04 116.23 235.98 112.34C238.92 108.45 241.86 104.49 244.67 100.6L253.85 106.93Z" fill="#9F5B53"/>
<path d="M257.24 108.08C256.217 114.284 253.536 120.096 249.48 124.9C249.32 121.38 249.26 118.22 249.27 115.39L257.24 108.08Z" fill="#BED3FC"/>
<path d="M279.86 63.34C279.42 70.62 279.53 74.9 275.86 78.64C270.33 84.26 261.35 80.92 259.61 73.64C258.05 67.1 259.04 56.3 266.17 53.4C267.738 52.7556 269.445 52.523 271.129 52.7244C272.812 52.9258 274.416 53.5545 275.788 54.5506C277.16 55.5468 278.254 56.8774 278.967 58.4158C279.68 59.9542 279.987 61.6493 279.86 63.34V63.34Z" fill="#9F5B53"/>
<path d="M265.72 58.5C265.78 67.06 268.56 77.56 276.84 76.83C282.34 76.35 286.52 66.32 287.09 62.07C287.96 55.57 288.09 54.33 284.43 53.58C286.03 52.71 286.61 48.58 282.87 47.58C277.67 46.21 267.87 44.87 270.95 41.7C264.81 42.81 263.27 45.27 264.39 48.26C260.8 47.98 258.59 46.1 258.7 43.26C252.75 45.67 248.89 59.3 265.72 58.5Z" fill="#263238"/>
<path d="M270 65.46C269.594 67.2254 268.617 68.8073 267.22 69.96C265.37 71.46 263.89 70.12 263.93 67.96C263.93 66.01 264.99 62.88 267.07 62.22C269.15 61.56 270.51 63.33 270 65.46Z" fill="#9F5B53"/>
<path d="M290 55.07C289.021 54.4468 287.903 54.0766 286.745 53.9928C285.588 53.909 284.428 54.1143 283.37 54.59C283.37 54.59 287.53 49 290 55.07Z" fill="#263238"/>
<path d="M301 327.75C300.94 327.75 302.39 332.92 302.39 332.92H317.53L317.25 328.31L301 327.75Z" fill="#44DDD0"/>
<path d="M258.81 327.75C258.75 327.75 259.51 332.92 259.51 332.92H274.65L275.06 328.31L258.81 327.75Z" fill="#44DDD0"/>
<path d="M263.79 323.77C263.76 323.77 263.731 323.759 263.708 323.738C263.686 323.718 263.672 323.69 263.67 323.66C261.47 302.54 256.3 251.44 255.67 233.11C255 214.4 255.61 172.42 255.81 160C255.81 159.93 255.87 159.89 255.94 159.88C255.971 159.882 256 159.896 256.022 159.918C256.044 159.94 256.058 159.969 256.06 160C255.86 172.42 255.25 214.4 255.92 233.1C256.57 251.43 261.74 302.51 263.92 323.63C263.92 323.664 263.908 323.697 263.886 323.723C263.864 323.748 263.834 323.765 263.8 323.77H263.79Z" fill="#44DDD0"/>
<path opacity="0.3" d="M263.79 323.77C263.76 323.77 263.731 323.759 263.708 323.738C263.686 323.718 263.672 323.69 263.67 323.66C261.47 302.54 256.3 251.44 255.67 233.11C255 214.4 255.61 172.42 255.81 160C255.81 159.93 255.87 159.89 255.94 159.88C255.971 159.882 256 159.896 256.022 159.918C256.044 159.94 256.058 159.969 256.06 160C255.86 172.42 255.25 214.4 255.92 233.1C256.57 251.43 261.74 302.51 263.92 323.63C263.92 323.664 263.908 323.697 263.886 323.723C263.864 323.748 263.834 323.765 263.8 323.77H263.79Z" fill="black"/>
<path d="M260.63 98.23C261.63 105.23 247.89 122.96 247.89 122.96L234.12 113.48C234.12 113.48 237.94 103.69 244.37 97.27C251.71 90 259.57 90.66 260.63 98.23Z" fill="#44DDD0"/>
<path opacity="0.8" d="M260.63 98.23C261.63 105.23 247.89 122.96 247.89 122.96L234.12 113.48C234.12 113.48 237.94 103.69 244.37 97.27C251.71 90 259.57 90.66 260.63 98.23Z" fill="white"/>
<path d="M252.88 92.28C252.88 92.28 245.06 101.11 252.44 155.78H291.74C292.01 149.78 288.22 120.32 294.03 91.9C289.687 91.0637 285.294 90.5092 280.88 90.24C275.318 89.9198 269.742 89.9198 264.18 90.24C260.366 90.6243 256.588 91.3064 252.88 92.28V92.28Z" fill="#44DDD0"/>
<path opacity="0.8" d="M252.88 92.28C252.88 92.28 245.06 101.11 252.44 155.78H291.74C292.01 149.78 288.22 120.32 294.03 91.9C289.687 91.0637 285.294 90.5092 280.88 90.24C275.318 89.9198 269.742 89.9198 264.18 90.24C260.366 90.6243 256.588 91.3064 252.88 92.28V92.28Z" fill="white"/>
<path d="M137.259 52.1447C140.397 38.3193 131.734 24.5673 117.909 21.4288C104.083 18.2903 90.3313 26.9537 87.1928 40.7791C84.0543 54.6045 92.7177 68.3565 106.543 71.495C120.368 74.6335 134.12 65.9701 137.259 52.1447Z" fill="#44DDD0"/>
<path opacity="0.2" d="M137.259 52.1447C140.397 38.3193 131.734 24.5673 117.909 21.4288C104.083 18.2903 90.3313 26.9537 87.1928 40.7791C84.0543 54.6045 92.7177 68.3565 106.543 71.495C120.368 74.6335 134.12 65.9701 137.259 52.1447Z" fill="white"/>
<path d="M109.59 79.75C102.95 79.2372 96.6177 76.7418 91.413 72.5873C86.2084 68.4329 82.3715 62.8109 80.3999 56.45L81.3499 56.15C83.2638 62.3202 86.9867 67.7734 92.0361 71.803C97.0856 75.8325 103.229 78.2528 109.67 78.75L109.59 79.75Z" fill="#44DDD0"/>
<path opacity="0.2" d="M109.59 79.75C102.95 79.2372 96.6177 76.7418 91.413 72.5873C86.2084 68.4329 82.3715 62.8109 80.3999 56.45L81.3499 56.15C83.2638 62.3202 86.9867 67.7734 92.0361 71.803C97.0856 75.8325 103.229 78.2528 109.67 78.75L109.59 79.75Z" fill="white"/>
<path d="M81.21 37.22L80.21 36.94C81.499 32.6329 83.6448 28.6305 86.5187 25.1731C89.3925 21.7156 92.9352 18.8744 96.9342 16.8198C100.933 14.7652 105.306 13.5397 109.79 13.2166C114.275 12.8936 118.778 13.4798 123.03 14.94L122.71 15.89C118.582 14.475 114.212 13.9083 109.86 14.2238C105.508 14.5394 101.264 15.7308 97.384 17.7265C93.5037 19.7221 90.0666 22.481 87.2787 25.8376C84.4908 29.1942 82.4096 33.0794 81.16 37.26L81.21 37.22Z" fill="#44DDD0"/>
<path opacity="0.2" d="M81.21 37.22L80.21 36.94C81.499 32.6329 83.6448 28.6305 86.5187 25.1731C89.3925 21.7156 92.9352 18.8744 96.9342 16.8198C100.933 14.7652 105.306 13.5397 109.79 13.2166C114.275 12.8936 118.778 13.4798 123.03 14.94L122.71 15.89C118.582 14.475 114.212 13.9083 109.86 14.2238C105.508 14.5394 101.264 15.7308 97.384 17.7265C93.5037 19.7221 90.0666 22.481 87.2787 25.8376C84.4908 29.1942 82.4096 33.0794 81.16 37.26L81.21 37.22Z" fill="white"/>
<path d="M143.14 36.79C140.802 29.3134 135.826 22.9412 129.14 18.86L129.66 18C136.546 22.2147 141.67 28.7844 144.08 36.49L143.14 36.79Z" fill="#44DDD0"/>
<path opacity="0.2" d="M143.14 36.79C140.802 29.3134 135.826 22.9412 129.14 18.86L129.66 18C136.546 22.2147 141.67 28.7844 144.08 36.49L143.14 36.79Z" fill="white"/>
<path d="M137.27 123.004C140.409 109.178 131.746 95.4264 117.92 92.2879C104.095 89.1494 90.3428 97.8128 87.2043 111.638C84.0658 125.464 92.7292 139.216 106.555 142.354C120.38 145.493 134.132 136.829 137.27 123.004Z" fill="#44DDD0"/>
<path opacity="0.6" d="M137.27 123.004C140.409 109.178 131.746 95.4264 117.92 92.2879C104.095 89.1494 90.3428 97.8128 87.2043 111.638C84.0658 125.464 92.7292 139.216 106.555 142.354C120.38 145.493 134.132 136.829 137.27 123.004Z" fill="white"/>
<path d="M137.262 193.861C140.401 180.035 131.737 166.283 117.912 163.145C104.087 160.006 90.3347 168.67 87.1962 182.495C84.0577 196.32 92.7211 210.072 106.547 213.211C120.372 216.349 134.124 207.686 137.262 193.861Z" fill="#44DDD0"/>
<path opacity="0.6" d="M137.262 193.861C140.401 180.035 131.737 166.283 117.912 163.145C104.087 160.006 90.3347 168.67 87.1962 182.495C84.0577 196.32 92.7211 210.072 106.547 213.211C120.372 216.349 134.124 207.686 137.262 193.861Z" fill="white"/>
<path d="M137.264 264.73C140.402 250.904 131.739 237.152 117.914 234.014C104.088 230.875 90.3362 239.539 87.1977 253.364C84.0592 267.19 92.7226 280.941 106.548 284.08C120.373 287.219 134.125 278.555 137.264 264.73Z" fill="#44DDD0"/>
<path opacity="0.6" d="M137.264 264.73C140.402 250.904 131.739 237.152 117.914 234.014C104.088 230.875 90.3362 239.539 87.1977 253.364C84.0592 267.19 92.7226 280.941 106.548 284.08C120.373 287.219 134.125 278.555 137.264 264.73Z" fill="white"/>
<path d="M66.402 52.1365C69.5405 38.3111 60.8771 24.5592 47.0517 21.4206C33.2263 18.2821 19.4744 26.9456 16.3359 40.7709C13.1973 54.5963 21.8608 68.3483 35.6862 71.4868C49.5115 74.6253 63.2635 65.9619 66.402 52.1365Z" fill="#44DDD0"/>
<path opacity="0.6" d="M66.402 52.1365C69.5405 38.3111 60.8771 24.5592 47.0517 21.4206C33.2263 18.2821 19.4744 26.9456 16.3359 40.7709C13.1973 54.5963 21.8608 68.3483 35.6862 71.4868C49.5115 74.6253 63.2635 65.9619 66.402 52.1365Z" fill="white"/>
<path d="M66.4135 123.006C69.552 109.18 60.8886 95.4282 47.0632 92.2897C33.2378 89.1512 19.4858 97.8146 16.3473 111.64C13.2088 125.465 21.8722 139.217 35.6976 142.356C49.523 145.494 63.275 136.831 66.4135 123.006Z" fill="#44DDD0"/>
<path opacity="0.6" d="M66.4135 123.006C69.552 109.18 60.8886 95.4282 47.0632 92.2897C33.2378 89.1512 19.4858 97.8146 16.3473 111.64C13.2088 125.465 21.8722 139.217 35.6976 142.356C49.523 145.494 63.275 136.831 66.4135 123.006Z" fill="white"/>
<path d="M66.4054 193.862C69.5439 180.037 60.8805 166.285 47.0551 163.147C33.2297 160.008 19.4778 168.672 16.3393 182.497C13.2008 196.322 21.8642 210.074 35.6896 213.213C49.515 216.351 63.2669 207.688 66.4054 193.862Z" fill="#44DDD0"/>
<path opacity="0.6" d="M66.4054 193.862C69.5439 180.037 60.8805 166.285 47.0551 163.147C33.2297 160.008 19.4778 168.672 16.3393 182.497C13.2008 196.322 21.8642 210.074 35.6896 213.213C49.515 216.351 63.2669 207.688 66.4054 193.862Z" fill="white"/>
<path d="M66.4069 264.722C69.5454 250.896 60.882 237.144 47.0566 234.006C33.2312 230.867 19.4793 239.531 16.3407 253.356C13.2022 267.181 21.8657 280.933 35.691 284.072C49.5164 287.21 63.2684 278.547 66.4069 264.722Z" fill="#44DDD0"/>
<path opacity="0.6" d="M66.4069 264.722C69.5454 250.896 60.882 237.144 47.0566 234.006C33.2312 230.867 19.4793 239.531 16.3407 253.356C13.2022 267.181 21.8657 280.933 35.691 284.072C49.5164 287.21 63.2684 278.547 66.4069 264.722Z" fill="white"/>
<path d="M204.2 124.88L198.81 119.3L193.06 126.72C193.06 126.72 197.44 130.94 202.65 129.72L204.2 124.88Z" fill="#9F5B53"/>
<path d="M191.4 116.24L188.94 124.02L193.06 126.72L198.81 119.3L191.4 116.24Z" fill="#9F5B53"/>
<path d="M118 116.66C118.446 115.336 119.173 114.123 120.132 113.107C121.091 112.09 122.258 111.293 123.554 110.771C124.85 110.248 126.244 110.012 127.64 110.079C129.036 110.147 130.4 110.515 131.64 111.16L125.64 108.04C123.419 106.918 121.702 105 120.831 102.669C119.96 100.338 119.999 97.7638 120.94 95.46C121.473 94.2455 122.249 93.1531 123.22 92.2503C124.192 91.3475 125.338 90.6535 126.588 90.2111C127.838 89.7688 129.166 89.5875 130.489 89.6784C131.812 89.7694 133.102 90.1307 134.28 90.74L128.28 87.63C126.057 86.5075 124.338 84.5881 123.467 82.2546C122.596 79.9211 122.636 77.345 123.58 75.04C124.112 73.8148 124.89 72.7126 125.868 71.8027C126.846 70.8928 128.001 70.1949 129.261 69.7526C130.521 69.3103 131.859 69.1333 133.191 69.2327C134.523 69.332 135.82 69.7056 137 70.33L108.51 55.43C106.414 54.3823 104.76 52.6223 103.843 50.4655C102.927 48.3086 102.809 45.896 103.51 43.66C103.959 42.3363 104.688 41.1252 105.648 40.1095C106.608 39.0938 107.776 38.2976 109.072 37.7752C110.368 37.2529 111.762 37.0169 113.158 37.0833C114.554 37.1497 115.919 37.517 117.16 38.16L177.16 69.53L171 44.25C170.393 41.7103 170.773 39.0349 172.062 36.7641C173.351 34.4932 175.454 32.7962 177.945 32.0155C180.437 31.2348 183.132 31.4287 185.487 32.5581C187.841 33.6874 189.679 35.668 190.63 38.1L210.31 89.22C211.995 93.5892 215.212 97.1967 219.36 99.37L222.79 101.16C223.316 101.434 223.782 101.809 224.162 102.264C224.543 102.719 224.829 103.244 225.006 103.81C225.182 104.376 225.245 104.971 225.191 105.562C225.137 106.152 224.967 106.726 224.69 107.25L200.69 153.1C200.134 154.16 199.181 154.956 198.04 155.314C196.898 155.672 195.661 155.562 194.6 155.01L186.18 150.61C182.991 148.973 179.417 148.234 175.84 148.47C167.192 148.953 158.574 147.087 150.9 143.07L122.9 128.43C120.822 127.366 119.189 125.599 118.292 123.443C117.395 121.288 117.291 118.884 118 116.66V116.66Z" fill="#44DDD0"/>
<path d="M196.74 157C195.772 157.001 194.818 156.768 193.96 156.32L185.54 151.92C182.59 150.409 179.288 149.719 175.98 149.92C167.062 150.42 158.175 148.499 150.26 144.36L122.26 129.72C119.862 128.493 117.976 126.455 116.938 123.969C115.899 121.482 115.776 118.708 116.59 116.14C117.104 114.608 117.945 113.206 119.056 112.031C120.166 110.857 121.519 109.939 123.02 109.34C123.427 109.172 123.844 109.031 124.27 108.92C121.932 107.519 120.176 105.324 119.32 102.736C118.465 100.148 118.568 97.3386 119.61 94.82C120.215 93.4085 121.108 92.1392 122.233 91.0938C123.357 90.0483 124.688 89.25 126.14 88.75C126.41 88.66 126.68 88.57 126.95 88.5C124.611 87.1 122.853 84.9055 121.997 82.3168C121.142 79.7282 121.246 76.9183 122.29 74.4C122.896 72.9903 123.79 71.723 124.914 70.6793C126.039 69.6357 127.369 68.8388 128.82 68.34C129.07 68.25 129.33 68.17 129.58 68.1L107.82 56.72C105.422 55.4927 103.536 53.4549 102.498 50.9686C101.459 48.4823 101.336 45.7085 102.15 43.14C102.668 41.6118 103.51 40.2135 104.618 39.0409C105.727 37.8683 107.075 36.949 108.572 36.346C110.069 35.743 111.678 35.4704 113.29 35.5471C114.901 35.6237 116.477 36.0477 117.91 36.79L175 66.67L169.61 44.6C168.919 41.6913 169.357 38.6286 170.837 36.0307C172.317 33.4329 174.727 31.4936 177.582 30.6048C180.437 29.7159 183.522 29.9437 186.215 31.2422C188.908 32.5407 191.008 34.813 192.09 37.6L211.77 88.72C213.325 92.7503 216.293 96.0772 220.12 98.08L223.54 99.87C224.24 100.235 224.862 100.734 225.368 101.34C225.875 101.945 226.257 102.644 226.493 103.398C226.729 104.151 226.814 104.944 226.743 105.73C226.673 106.516 226.447 107.281 226.08 107.98L202.08 153.84C201.563 154.803 200.791 155.607 199.85 156.164C198.909 156.721 197.834 157.01 196.74 157V157ZM177.11 146.91C180.525 146.891 183.894 147.698 186.93 149.26L195.35 153.66C195.7 153.846 196.084 153.96 196.479 153.997C196.873 154.034 197.272 153.992 197.65 153.874C198.028 153.756 198.38 153.564 198.684 153.309C198.987 153.054 199.238 152.742 199.42 152.39L223.42 106.53C223.604 106.18 223.717 105.796 223.752 105.402C223.787 105.008 223.744 104.611 223.625 104.234C223.506 103.856 223.314 103.506 223.059 103.203C222.804 102.901 222.492 102.652 222.14 102.47L218.72 100.68C214.261 98.3419 210.806 94.4601 209 89.76L189.31 38.64C188.52 36.5346 186.953 34.8119 184.932 33.8254C182.911 32.8389 180.589 32.6637 178.443 33.3355C176.297 34.0074 174.489 35.4755 173.391 37.4383C172.294 39.4011 171.989 41.7097 172.54 43.89L178.72 69.18C178.789 69.459 178.775 69.7518 178.681 70.0233C178.587 70.2947 178.417 70.5332 178.19 70.71C177.964 70.8905 177.69 71.0009 177.403 71.0276C177.115 71.0542 176.825 70.996 176.57 70.86L116.57 39.49C115.524 38.9463 114.373 38.6353 113.196 38.5784C112.019 38.5214 110.843 38.7198 109.75 39.16C108.643 39.5913 107.646 40.2639 106.831 41.1287C106.016 41.9936 105.405 43.0291 105.04 44.16C104.443 46.0565 104.539 48.1036 105.312 49.9355C106.085 51.7674 107.485 53.2648 109.26 54.16L137.76 69.06C138.113 69.2443 138.378 69.5612 138.497 69.941C138.616 70.3207 138.579 70.7323 138.395 71.085C138.304 71.2596 138.179 71.4146 138.028 71.541C137.877 71.6675 137.702 71.7629 137.514 71.8219C137.134 71.941 136.723 71.9043 136.37 71.72C135.375 71.2037 134.285 70.8973 133.167 70.8199C132.049 70.7425 130.927 70.8957 129.87 71.27C128.809 71.6355 127.836 72.2182 127.013 72.981C126.19 73.7438 125.535 74.6698 125.09 75.7C124.294 77.6543 124.264 79.8367 125.005 81.8123C125.746 83.788 127.205 85.4117 129.09 86.36L135.09 89.48C135.413 89.6796 135.648 89.9941 135.748 90.3601C135.848 90.726 135.805 91.1163 135.629 91.4523C135.453 91.7882 135.156 92.0449 134.798 92.1707C134.44 92.2965 134.048 92.2819 133.7 92.13V92.13C132.706 91.6156 131.618 91.3103 130.502 91.2329C129.385 91.1555 128.265 91.3077 127.21 91.68C126.149 92.0477 125.176 92.6324 124.353 93.3968C123.53 94.1612 122.875 95.0886 122.43 96.12C121.637 98.0731 121.608 100.253 122.349 102.226C123.091 104.2 124.547 105.822 126.43 106.77L132.43 109.89C132.783 110.074 133.048 110.391 133.167 110.771C133.286 111.151 133.249 111.562 133.065 111.915C132.881 112.268 132.564 112.533 132.184 112.652C131.804 112.771 131.393 112.734 131.04 112.55V112.55C129.993 112.01 128.842 111.703 127.665 111.647C126.488 111.592 125.313 111.791 124.22 112.23C123.117 112.666 122.124 113.341 121.311 114.205C120.499 115.069 119.887 116.102 119.52 117.23V117.23C118.921 119.126 119.016 121.174 119.789 123.007C120.563 124.839 121.963 126.336 123.74 127.23L151.74 141.87C159.159 145.705 167.472 147.477 175.81 147C176.25 147 176.68 146.93 177.11 146.93V146.91Z" fill="#44DDD0"/>
<path d="M139.13 116.57C138.886 116.572 138.646 116.513 138.43 116.4L131 112.49C130.825 112.399 130.67 112.274 130.544 112.123C130.417 111.972 130.322 111.797 130.263 111.609C130.204 111.421 130.183 111.223 130.2 111.027C130.218 110.831 130.274 110.64 130.365 110.465C130.456 110.29 130.581 110.135 130.732 110.009C130.883 109.882 131.058 109.787 131.246 109.728C131.434 109.669 131.632 109.648 131.828 109.665C132.024 109.683 132.215 109.739 132.39 109.83L139.86 113.74C140.157 113.895 140.394 114.145 140.533 114.451C140.671 114.756 140.703 115.099 140.624 115.425C140.544 115.751 140.358 116.041 140.094 116.248C139.831 116.456 139.505 116.569 139.17 116.57H139.13Z" fill="#44DDD0"/>
<path d="M141.81 96.15C141.566 96.1531 141.325 96.0946 141.11 95.98L133.64 92.07C133.451 91.9875 133.282 91.8671 133.141 91.7161C133.001 91.5652 132.894 91.387 132.826 91.1927C132.757 90.9984 132.73 90.7921 132.745 90.5867C132.76 90.3813 132.817 90.1811 132.912 89.9987C133.008 89.8163 133.14 89.6556 133.301 89.5265C133.461 89.3975 133.647 89.3029 133.845 89.2486C134.044 89.1943 134.252 89.1815 134.456 89.211C134.659 89.2404 134.855 89.3116 135.03 89.42L142.5 93.32C142.797 93.4751 143.034 93.7254 143.173 94.0309C143.311 94.3364 143.343 94.6795 143.264 95.0053C143.184 95.3312 142.998 95.621 142.734 95.8285C142.471 96.036 142.145 96.1492 141.81 96.15V96.15Z" fill="#44DDD0"/>
<path d="M144.48 75.74C144.24 75.7372 144.004 75.679 143.79 75.57L136.32 71.66C136.145 71.5687 135.99 71.4439 135.864 71.2928C135.738 71.1416 135.642 70.967 135.583 70.779C135.524 70.591 135.503 70.3931 135.52 70.1969C135.538 70.0006 135.594 69.8096 135.685 69.635C135.776 69.4603 135.901 69.3054 136.052 69.1789C136.203 69.0525 136.378 68.957 136.566 68.8981C136.754 68.8391 136.952 68.8178 137.148 68.8353C137.344 68.8527 137.535 68.9087 137.71 69L145.18 72.91C145.478 73.0655 145.715 73.3166 145.854 73.6231C145.992 73.9296 146.023 74.2737 145.943 74.6002C145.862 74.9266 145.674 75.2164 145.409 75.4231C145.143 75.6298 144.816 75.7414 144.48 75.74V75.74Z" fill="#44DDD0"/>
<path opacity="0.3" d="M196.74 157C195.772 157.001 194.818 156.768 193.96 156.32L185.54 151.92C182.59 150.409 179.288 149.719 175.98 149.92C167.062 150.42 158.175 148.499 150.26 144.36L122.26 129.72C119.862 128.493 117.976 126.455 116.938 123.969C115.899 121.482 115.776 118.708 116.59 116.14C117.104 114.608 117.945 113.206 119.056 112.031C120.166 110.857 121.519 109.939 123.02 109.34C123.427 109.172 123.844 109.031 124.27 108.92C121.932 107.519 120.176 105.324 119.32 102.736C118.465 100.148 118.568 97.3386 119.61 94.82C120.215 93.4085 121.108 92.1392 122.233 91.0938C123.357 90.0483 124.688 89.25 126.14 88.75C126.41 88.66 126.68 88.57 126.95 88.5C124.611 87.1 122.853 84.9055 121.997 82.3168C121.142 79.7282 121.246 76.9183 122.29 74.4C122.896 72.9903 123.79 71.723 124.914 70.6793C126.039 69.6357 127.369 68.8388 128.82 68.34C129.07 68.25 129.33 68.17 129.58 68.1L107.82 56.72C105.422 55.4927 103.536 53.4549 102.498 50.9686C101.459 48.4823 101.336 45.7085 102.15 43.14C102.668 41.6118 103.51 40.2135 104.618 39.0409C105.727 37.8683 107.075 36.949 108.572 36.346C110.069 35.743 111.678 35.4704 113.29 35.5471C114.901 35.6237 116.477 36.0477 117.91 36.79L175 66.67L169.61 44.6C168.919 41.6913 169.357 38.6286 170.837 36.0307C172.317 33.4329 174.727 31.4936 177.582 30.6048C180.437 29.7159 183.522 29.9437 186.215 31.2422C188.908 32.5407 191.008 34.813 192.09 37.6L211.77 88.72C213.325 92.7503 216.293 96.0772 220.12 98.08L223.54 99.87C224.24 100.235 224.862 100.734 225.368 101.34C225.875 101.945 226.257 102.644 226.493 103.398C226.729 104.151 226.814 104.944 226.743 105.73C226.673 106.516 226.447 107.281 226.08 107.98L202.08 153.84C201.563 154.803 200.791 155.607 199.85 156.164C198.909 156.721 197.834 157.01 196.74 157V157ZM177.11 146.91C180.525 146.891 183.894 147.698 186.93 149.26L195.35 153.66C195.7 153.846 196.084 153.96 196.479 153.997C196.873 154.034 197.272 153.992 197.65 153.874C198.028 153.756 198.38 153.564 198.684 153.309C198.987 153.054 199.238 152.742 199.42 152.39L223.42 106.53C223.604 106.18 223.717 105.796 223.752 105.402C223.787 105.008 223.744 104.611 223.625 104.234C223.506 103.856 223.314 103.506 223.059 103.203C222.804 102.901 222.492 102.652 222.14 102.47L218.72 100.68C214.261 98.3419 210.806 94.4601 209 89.76L189.31 38.64C188.52 36.5346 186.953 34.8119 184.932 33.8254C182.911 32.8389 180.589 32.6637 178.443 33.3355C176.297 34.0074 174.489 35.4755 173.391 37.4383C172.294 39.4011 171.989 41.7097 172.54 43.89L178.72 69.18C178.789 69.459 178.775 69.7518 178.681 70.0233C178.587 70.2947 178.417 70.5332 178.19 70.71C177.964 70.8905 177.69 71.0009 177.403 71.0276C177.115 71.0542 176.825 70.996 176.57 70.86L116.57 39.49C115.524 38.9463 114.373 38.6353 113.196 38.5784C112.019 38.5214 110.843 38.7198 109.75 39.16C108.643 39.5913 107.646 40.2639 106.831 41.1287C106.016 41.9936 105.405 43.0291 105.04 44.16C104.443 46.0565 104.539 48.1036 105.312 49.9355C106.085 51.7674 107.485 53.2648 109.26 54.16L137.76 69.06C138.113 69.2443 138.378 69.5612 138.497 69.941C138.616 70.3207 138.579 70.7323 138.395 71.085C138.304 71.2596 138.179 71.4146 138.028 71.541C137.877 71.6675 137.702 71.7629 137.514 71.8219C137.134 71.941 136.723 71.9043 136.37 71.72C135.375 71.2037 134.285 70.8973 133.167 70.8199C132.049 70.7425 130.927 70.8957 129.87 71.27C128.809 71.6355 127.836 72.2182 127.013 72.981C126.19 73.7438 125.535 74.6698 125.09 75.7C124.294 77.6543 124.264 79.8367 125.005 81.8123C125.746 83.788 127.205 85.4117 129.09 86.36L135.09 89.48C135.413 89.6796 135.648 89.9941 135.748 90.3601C135.848 90.726 135.805 91.1163 135.629 91.4523C135.453 91.7882 135.156 92.0449 134.798 92.1707C134.44 92.2965 134.048 92.2819 133.7 92.13V92.13C132.706 91.6156 131.618 91.3103 130.502 91.2329C129.385 91.1555 128.265 91.3077 127.21 91.68C126.149 92.0477 125.176 92.6324 124.353 93.3968C123.53 94.1612 122.875 95.0886 122.43 96.12C121.637 98.0731 121.608 100.253 122.349 102.226C123.091 104.2 124.547 105.822 126.43 106.77L132.43 109.89C132.783 110.074 133.048 110.391 133.167 110.771C133.286 111.151 133.249 111.562 133.065 111.915C132.881 112.268 132.564 112.533 132.184 112.652C131.804 112.771 131.393 112.734 131.04 112.55V112.55C129.993 112.01 128.842 111.703 127.665 111.647C126.488 111.592 125.313 111.791 124.22 112.23C123.117 112.666 122.124 113.341 121.311 114.205C120.499 115.069 119.887 116.102 119.52 117.23V117.23C118.921 119.126 119.016 121.174 119.789 123.007C120.563 124.839 121.963 126.336 123.74 127.23L151.74 141.87C159.159 145.705 167.472 147.477 175.81 147C176.25 147 176.68 146.93 177.11 146.93V146.91Z" fill="black"/>
<path d="M54.1729 386.99V392H52.4854V379.203H57.2051C58.6055 379.203 59.7012 379.561 60.4922 380.275C61.2891 380.99 61.6875 381.937 61.6875 383.114C61.6875 384.356 61.2979 385.314 60.5186 385.988C59.7451 386.656 58.6348 386.99 57.1875 386.99H54.1729ZM54.1729 385.61H57.2051C58.1074 385.61 58.7988 385.399 59.2793 384.978C59.7598 384.55 60 383.935 60 383.132C60 382.37 59.7598 381.761 59.2793 381.304C58.7988 380.847 58.1396 380.609 57.3018 380.592H54.1729V385.61ZM65.3525 392H63.7266V378.5H65.3525V392ZM71.9092 392.176C70.6201 392.176 69.5713 391.754 68.7627 390.91C67.9541 390.061 67.5498 388.927 67.5498 387.509V387.21C67.5498 386.267 67.7285 385.426 68.0859 384.688C68.4492 383.943 68.9531 383.363 69.5977 382.947C70.248 382.525 70.9512 382.314 71.707 382.314C72.9434 382.314 73.9043 382.722 74.5898 383.536C75.2754 384.351 75.6182 385.517 75.6182 387.034V387.711H69.1758C69.1992 388.648 69.4717 389.407 69.9932 389.987C70.5205 390.562 71.1885 390.849 71.9971 390.849C72.5713 390.849 73.0576 390.731 73.4561 390.497C73.8545 390.263 74.2031 389.952 74.502 389.565L75.4951 390.339C74.6982 391.563 73.5029 392.176 71.9092 392.176ZM71.707 383.65C71.0508 383.65 70.5 383.891 70.0547 384.371C69.6094 384.846 69.334 385.514 69.2285 386.375H73.9922V386.252C73.9453 385.426 73.7227 384.787 73.3242 384.336C72.9258 383.879 72.3867 383.65 71.707 383.65ZM83.3789 392C83.2852 391.812 83.209 391.479 83.1504 390.998C82.3945 391.783 81.4922 392.176 80.4434 392.176C79.5059 392.176 78.7354 391.912 78.1318 391.385C77.5342 390.852 77.2354 390.178 77.2354 389.363C77.2354 388.373 77.6104 387.605 78.3604 387.061C79.1162 386.51 80.1768 386.234 81.542 386.234H83.124V385.487C83.124 384.919 82.9541 384.468 82.6143 384.134C82.2744 383.794 81.7734 383.624 81.1113 383.624C80.5312 383.624 80.0449 383.771 79.6523 384.063C79.2598 384.356 79.0635 384.711 79.0635 385.127H77.4287C77.4287 384.652 77.5957 384.195 77.9297 383.756C78.2695 383.311 78.7266 382.959 79.3008 382.701C79.8809 382.443 80.5166 382.314 81.208 382.314C82.3037 382.314 83.1621 382.59 83.7832 383.141C84.4043 383.686 84.7266 384.438 84.75 385.399V389.776C84.75 390.649 84.8613 391.344 85.084 391.859V392H83.3789ZM80.6807 390.761C81.1904 390.761 81.6738 390.629 82.1309 390.365C82.5879 390.102 82.9189 389.759 83.124 389.337V387.386H81.8496C79.8574 387.386 78.8613 387.969 78.8613 389.135C78.8613 389.645 79.0312 390.043 79.3711 390.33C79.7109 390.617 80.1475 390.761 80.6807 390.761ZM92.8359 389.478C92.8359 389.038 92.6689 388.698 92.335 388.458C92.0068 388.212 91.4297 388.001 90.6035 387.825C89.7832 387.649 89.1299 387.438 88.6436 387.192C88.1631 386.946 87.8057 386.653 87.5713 386.313C87.3428 385.974 87.2285 385.569 87.2285 385.101C87.2285 384.321 87.5566 383.662 88.2129 383.123C88.875 382.584 89.7188 382.314 90.7441 382.314C91.8223 382.314 92.6953 382.593 93.3633 383.149C94.0371 383.706 94.374 384.418 94.374 385.285H92.7393C92.7393 384.84 92.5488 384.456 92.168 384.134C91.793 383.812 91.3184 383.65 90.7441 383.65C90.1523 383.65 89.6895 383.779 89.3555 384.037C89.0215 384.295 88.8545 384.632 88.8545 385.048C88.8545 385.44 89.0098 385.736 89.3203 385.936C89.6309 386.135 90.1904 386.325 90.999 386.507C91.8135 386.688 92.4727 386.905 92.9766 387.157C93.4805 387.409 93.8525 387.714 94.0928 388.071C94.3389 388.423 94.4619 388.854 94.4619 389.363C94.4619 390.213 94.1221 390.896 93.4424 391.411C92.7627 391.921 91.8809 392.176 90.7969 392.176C90.0352 392.176 89.3613 392.041 88.7754 391.771C88.1895 391.502 87.7295 391.127 87.3955 390.646C87.0674 390.16 86.9033 389.636 86.9033 389.073H88.5293C88.5586 389.618 88.7754 390.052 89.1797 390.374C89.5898 390.69 90.1289 390.849 90.7969 390.849C91.4121 390.849 91.9043 390.726 92.2734 390.479C92.6484 390.228 92.8359 389.894 92.8359 389.478ZM100.526 392.176C99.2373 392.176 98.1885 391.754 97.3799 390.91C96.5713 390.061 96.167 388.927 96.167 387.509V387.21C96.167 386.267 96.3457 385.426 96.7031 384.688C97.0664 383.943 97.5703 383.363 98.2148 382.947C98.8652 382.525 99.5684 382.314 100.324 382.314C101.561 382.314 102.521 382.722 103.207 383.536C103.893 384.351 104.235 385.517 104.235 387.034V387.711H97.793C97.8164 388.648 98.0889 389.407 98.6104 389.987C99.1377 390.562 99.8057 390.849 100.614 390.849C101.188 390.849 101.675 390.731 102.073 390.497C102.472 390.263 102.82 389.952 103.119 389.565L104.112 390.339C103.315 391.563 102.12 392.176 100.526 392.176ZM100.324 383.65C99.668 383.65 99.1172 383.891 98.6719 384.371C98.2266 384.846 97.9512 385.514 97.8457 386.375H102.609V386.252C102.562 385.426 102.34 384.787 101.941 384.336C101.543 383.879 101.004 383.65 100.324 383.65ZM116.127 389.478C116.127 389.038 115.96 388.698 115.626 388.458C115.298 388.212 114.721 388.001 113.895 387.825C113.074 387.649 112.421 387.438 111.935 387.192C111.454 386.946 111.097 386.653 110.862 386.313C110.634 385.974 110.52 385.569 110.52 385.101C110.52 384.321 110.848 383.662 111.504 383.123C112.166 382.584 113.01 382.314 114.035 382.314C115.113 382.314 115.986 382.593 116.654 383.149C117.328 383.706 117.665 384.418 117.665 385.285H116.03C116.03 384.84 115.84 384.456 115.459 384.134C115.084 383.812 114.609 383.65 114.035 383.65C113.443 383.65 112.98 383.779 112.646 384.037C112.312 384.295 112.146 384.632 112.146 385.048C112.146 385.44 112.301 385.736 112.611 385.936C112.922 386.135 113.481 386.325 114.29 386.507C115.104 386.688 115.764 386.905 116.268 387.157C116.771 387.409 117.144 387.714 117.384 388.071C117.63 388.423 117.753 388.854 117.753 389.363C117.753 390.213 117.413 390.896 116.733 391.411C116.054 391.921 115.172 392.176 114.088 392.176C113.326 392.176 112.652 392.041 112.066 391.771C111.48 391.502 111.021 391.127 110.687 390.646C110.358 390.16 110.194 389.636 110.194 389.073H111.82C111.85 389.618 112.066 390.052 112.471 390.374C112.881 390.69 113.42 390.849 114.088 390.849C114.703 390.849 115.195 390.726 115.564 390.479C115.939 390.228 116.127 389.894 116.127 389.478ZM123.817 392.176C122.528 392.176 121.479 391.754 120.671 390.91C119.862 390.061 119.458 388.927 119.458 387.509V387.21C119.458 386.267 119.637 385.426 119.994 384.688C120.357 383.943 120.861 383.363 121.506 382.947C122.156 382.525 122.859 382.314 123.615 382.314C124.852 382.314 125.812 382.722 126.498 383.536C127.184 384.351 127.526 385.517 127.526 387.034V387.711H121.084C121.107 388.648 121.38 389.407 121.901 389.987C122.429 390.562 123.097 390.849 123.905 390.849C124.479 390.849 124.966 390.731 125.364 390.497C125.763 390.263 126.111 389.952 126.41 389.565L127.403 390.339C126.606 391.563 125.411 392.176 123.817 392.176ZM123.615 383.65C122.959 383.65 122.408 383.891 121.963 384.371C121.518 384.846 121.242 385.514 121.137 386.375H125.9V386.252C125.854 385.426 125.631 384.787 125.232 384.336C124.834 383.879 124.295 383.65 123.615 383.65ZM131.183 392H129.557V378.5H131.183V392ZM137.739 392.176C136.45 392.176 135.401 391.754 134.593 390.91C133.784 390.061 133.38 388.927 133.38 387.509V387.21C133.38 386.267 133.559 385.426 133.916 384.688C134.279 383.943 134.783 383.363 135.428 382.947C136.078 382.525 136.781 382.314 137.537 382.314C138.773 382.314 139.734 382.722 140.42 383.536C141.105 384.351 141.448 385.517 141.448 387.034V387.711H135.006C135.029 388.648 135.302 389.407 135.823 389.987C136.351 390.562 137.019 390.849 137.827 390.849C138.401 390.849 138.888 390.731 139.286 390.497C139.685 390.263 140.033 389.952 140.332 389.565L141.325 390.339C140.528 391.563 139.333 392.176 137.739 392.176ZM137.537 383.65C136.881 383.65 136.33 383.891 135.885 384.371C135.439 384.846 135.164 385.514 135.059 386.375H139.822V386.252C139.775 385.426 139.553 384.787 139.154 384.336C138.756 383.879 138.217 383.65 137.537 383.65ZM147.152 390.849C147.732 390.849 148.239 390.673 148.673 390.321C149.106 389.97 149.347 389.53 149.394 389.003H150.932C150.902 389.548 150.715 390.066 150.369 390.559C150.023 391.051 149.561 391.443 148.98 391.736C148.406 392.029 147.797 392.176 147.152 392.176C145.857 392.176 144.826 391.745 144.059 390.884C143.297 390.017 142.916 388.833 142.916 387.333V387.061C142.916 386.135 143.086 385.312 143.426 384.591C143.766 383.87 144.252 383.311 144.885 382.912C145.523 382.514 146.276 382.314 147.144 382.314C148.21 382.314 149.095 382.634 149.798 383.272C150.507 383.911 150.885 384.74 150.932 385.76H149.394C149.347 385.145 149.112 384.641 148.69 384.248C148.274 383.85 147.759 383.65 147.144 383.65C146.317 383.65 145.676 383.949 145.219 384.547C144.768 385.139 144.542 385.997 144.542 387.122V387.43C144.542 388.525 144.768 389.369 145.219 389.961C145.67 390.553 146.314 390.849 147.152 390.849ZM154.966 380.188V382.49H156.741V383.747H154.966V389.645C154.966 390.025 155.045 390.312 155.203 390.506C155.361 390.693 155.631 390.787 156.012 390.787C156.199 390.787 156.457 390.752 156.785 390.682V392C156.357 392.117 155.941 392.176 155.537 392.176C154.811 392.176 154.263 391.956 153.894 391.517C153.524 391.077 153.34 390.453 153.34 389.645V383.747H151.608V382.49H153.34V380.188H154.966ZM168.984 392C168.891 391.812 168.814 391.479 168.756 390.998C168 391.783 167.098 392.176 166.049 392.176C165.111 392.176 164.341 391.912 163.737 391.385C163.14 390.852 162.841 390.178 162.841 389.363C162.841 388.373 163.216 387.605 163.966 387.061C164.722 386.51 165.782 386.234 167.147 386.234H168.729V385.487C168.729 384.919 168.56 384.468 168.22 384.134C167.88 383.794 167.379 383.624 166.717 383.624C166.137 383.624 165.65 383.771 165.258 384.063C164.865 384.356 164.669 384.711 164.669 385.127H163.034C163.034 384.652 163.201 384.195 163.535 383.756C163.875 383.311 164.332 382.959 164.906 382.701C165.486 382.443 166.122 382.314 166.813 382.314C167.909 382.314 168.768 382.59 169.389 383.141C170.01 383.686 170.332 384.438 170.355 385.399V389.776C170.355 390.649 170.467 391.344 170.689 391.859V392H168.984ZM166.286 390.761C166.796 390.761 167.279 390.629 167.736 390.365C168.193 390.102 168.524 389.759 168.729 389.337V387.386H167.455C165.463 387.386 164.467 387.969 164.467 389.135C164.467 389.645 164.637 390.043 164.977 390.33C165.316 390.617 165.753 390.761 166.286 390.761ZM179.136 392H177.51V378.5H179.136V392ZM183.513 392H181.887V382.49H183.513V392ZM181.755 379.968C181.755 379.704 181.834 379.481 181.992 379.3C182.156 379.118 182.396 379.027 182.713 379.027C183.029 379.027 183.27 379.118 183.434 379.3C183.598 379.481 183.68 379.704 183.68 379.968C183.68 380.231 183.598 380.451 183.434 380.627C183.27 380.803 183.029 380.891 182.713 380.891C182.396 380.891 182.156 380.803 181.992 380.627C181.834 380.451 181.755 380.231 181.755 379.968ZM191.66 389.478C191.66 389.038 191.493 388.698 191.159 388.458C190.831 388.212 190.254 388.001 189.428 387.825C188.607 387.649 187.954 387.438 187.468 387.192C186.987 386.946 186.63 386.653 186.396 386.313C186.167 385.974 186.053 385.569 186.053 385.101C186.053 384.321 186.381 383.662 187.037 383.123C187.699 382.584 188.543 382.314 189.568 382.314C190.646 382.314 191.52 382.593 192.188 383.149C192.861 383.706 193.198 384.418 193.198 385.285H191.563C191.563 384.84 191.373 384.456 190.992 384.134C190.617 383.812 190.143 383.65 189.568 383.65C188.977 383.65 188.514 383.779 188.18 384.037C187.846 384.295 187.679 384.632 187.679 385.048C187.679 385.44 187.834 385.736 188.145 385.936C188.455 386.135 189.015 386.325 189.823 386.507C190.638 386.688 191.297 386.905 191.801 387.157C192.305 387.409 192.677 387.714 192.917 388.071C193.163 388.423 193.286 388.854 193.286 389.363C193.286 390.213 192.946 390.896 192.267 391.411C191.587 391.921 190.705 392.176 189.621 392.176C188.859 392.176 188.186 392.041 187.6 391.771C187.014 391.502 186.554 391.127 186.22 390.646C185.892 390.16 185.728 389.636 185.728 389.073H187.354C187.383 389.618 187.6 390.052 188.004 390.374C188.414 390.69 188.953 390.849 189.621 390.849C190.236 390.849 190.729 390.726 191.098 390.479C191.473 390.228 191.66 389.894 191.66 389.478ZM197.61 380.188V382.49H199.386V383.747H197.61V389.645C197.61 390.025 197.689 390.312 197.848 390.506C198.006 390.693 198.275 390.787 198.656 390.787C198.844 390.787 199.102 390.752 199.43 390.682V392C199.002 392.117 198.586 392.176 198.182 392.176C197.455 392.176 196.907 391.956 196.538 391.517C196.169 391.077 195.984 390.453 195.984 389.645V383.747H194.253V382.49H195.984V380.188H197.61ZM205.327 387.157C205.327 386.226 205.509 385.388 205.872 384.644C206.241 383.899 206.751 383.325 207.401 382.921C208.058 382.517 208.805 382.314 209.643 382.314C210.938 382.314 211.983 382.763 212.78 383.659C213.583 384.556 213.984 385.748 213.984 387.236V387.351C213.984 388.276 213.806 389.108 213.448 389.847C213.097 390.579 212.59 391.15 211.928 391.561C211.271 391.971 210.516 392.176 209.66 392.176C208.371 392.176 207.325 391.728 206.522 390.831C205.726 389.935 205.327 388.748 205.327 387.271V387.157ZM206.962 387.351C206.962 388.405 207.205 389.252 207.691 389.891C208.184 390.529 208.84 390.849 209.66 390.849C210.486 390.849 211.143 390.526 211.629 389.882C212.115 389.231 212.358 388.323 212.358 387.157C212.358 386.114 212.109 385.271 211.611 384.626C211.119 383.976 210.463 383.65 209.643 383.65C208.84 383.65 208.192 383.97 207.7 384.608C207.208 385.247 206.962 386.161 206.962 387.351ZM217.562 382.49L217.614 383.686C218.341 382.771 219.29 382.314 220.462 382.314C222.472 382.314 223.485 383.448 223.503 385.716V392H221.877V385.707C221.871 385.021 221.713 384.515 221.402 384.187C221.098 383.858 220.62 383.694 219.97 383.694C219.442 383.694 218.979 383.835 218.581 384.116C218.183 384.397 217.872 384.767 217.649 385.224V392H216.023V382.49H217.562ZM232.626 380.188V382.49H234.401V383.747H232.626V389.645C232.626 390.025 232.705 390.312 232.863 390.506C233.021 390.693 233.291 390.787 233.672 390.787C233.859 390.787 234.117 390.752 234.445 390.682V392C234.018 392.117 233.602 392.176 233.197 392.176C232.471 392.176 231.923 391.956 231.554 391.517C231.185 391.077 231 390.453 231 389.645V383.747H229.269V382.49H231V380.188H232.626ZM237.935 383.642C238.655 382.757 239.593 382.314 240.747 382.314C242.757 382.314 243.771 383.448 243.788 385.716V392H242.162V385.707C242.156 385.021 241.998 384.515 241.688 384.187C241.383 383.858 240.905 383.694 240.255 383.694C239.728 383.694 239.265 383.835 238.866 384.116C238.468 384.397 238.157 384.767 237.935 385.224V392H236.309V378.5H237.935V383.642ZM250.169 392.176C248.88 392.176 247.831 391.754 247.022 390.91C246.214 390.061 245.81 388.927 245.81 387.509V387.21C245.81 386.267 245.988 385.426 246.346 384.688C246.709 383.943 247.213 383.363 247.857 382.947C248.508 382.525 249.211 382.314 249.967 382.314C251.203 382.314 252.164 382.722 252.85 383.536C253.535 384.351 253.878 385.517 253.878 387.034V387.711H247.436C247.459 388.648 247.731 389.407 248.253 389.987C248.78 390.562 249.448 390.849 250.257 390.849C250.831 390.849 251.317 390.731 251.716 390.497C252.114 390.263 252.463 389.952 252.762 389.565L253.755 390.339C252.958 391.563 251.763 392.176 250.169 392.176ZM249.967 383.65C249.311 383.65 248.76 383.891 248.314 384.371C247.869 384.846 247.594 385.514 247.488 386.375H252.252V386.252C252.205 385.426 251.982 384.787 251.584 384.336C251.186 383.879 250.646 383.65 249.967 383.65ZM265.77 389.478C265.77 389.038 265.603 388.698 265.269 388.458C264.94 388.212 264.363 388.001 263.537 387.825C262.717 387.649 262.063 387.438 261.577 387.192C261.097 386.946 260.739 386.653 260.505 386.313C260.276 385.974 260.162 385.569 260.162 385.101C260.162 384.321 260.49 383.662 261.146 383.123C261.809 382.584 262.652 382.314 263.678 382.314C264.756 382.314 265.629 382.593 266.297 383.149C266.971 383.706 267.308 384.418 267.308 385.285H265.673C265.673 384.84 265.482 384.456 265.102 384.134C264.727 383.812 264.252 383.65 263.678 383.65C263.086 383.65 262.623 383.779 262.289 384.037C261.955 384.295 261.788 384.632 261.788 385.048C261.788 385.44 261.943 385.736 262.254 385.936C262.564 386.135 263.124 386.325 263.933 386.507C264.747 386.688 265.406 386.905 265.91 387.157C266.414 387.409 266.786 387.714 267.026 388.071C267.272 388.423 267.396 388.854 267.396 389.363C267.396 390.213 267.056 390.896 266.376 391.411C265.696 391.921 264.814 392.176 263.73 392.176C262.969 392.176 262.295 392.041 261.709 391.771C261.123 391.502 260.663 391.127 260.329 390.646C260.001 390.16 259.837 389.636 259.837 389.073H261.463C261.492 389.618 261.709 390.052 262.113 390.374C262.523 390.69 263.062 390.849 263.73 390.849C264.346 390.849 264.838 390.726 265.207 390.479C265.582 390.228 265.77 389.894 265.77 389.478ZM271.28 392H269.654V382.49H271.28V392ZM269.522 379.968C269.522 379.704 269.602 379.481 269.76 379.3C269.924 379.118 270.164 379.027 270.48 379.027C270.797 379.027 271.037 379.118 271.201 379.3C271.365 379.481 271.447 379.704 271.447 379.968C271.447 380.231 271.365 380.451 271.201 380.627C271.037 380.803 270.797 380.891 270.48 380.891C270.164 380.891 269.924 380.803 269.76 380.627C269.602 380.451 269.522 380.231 269.522 379.968ZM273.495 387.166C273.495 385.707 273.841 384.535 274.532 383.65C275.224 382.76 276.129 382.314 277.248 382.314C278.361 382.314 279.243 382.695 279.894 383.457V378.5H281.52V392H280.025L279.946 390.98C279.296 391.777 278.391 392.176 277.23 392.176C276.129 392.176 275.229 391.725 274.532 390.822C273.841 389.92 273.495 388.742 273.495 387.289V387.166ZM275.121 387.351C275.121 388.429 275.344 389.272 275.789 389.882C276.234 390.491 276.85 390.796 277.635 390.796C278.666 390.796 279.419 390.333 279.894 389.407V385.039C279.407 384.143 278.66 383.694 277.652 383.694C276.855 383.694 276.234 384.002 275.789 384.617C275.344 385.232 275.121 386.144 275.121 387.351ZM287.997 392.176C286.708 392.176 285.659 391.754 284.851 390.91C284.042 390.061 283.638 388.927 283.638 387.509V387.21C283.638 386.267 283.816 385.426 284.174 384.688C284.537 383.943 285.041 383.363 285.686 382.947C286.336 382.525 287.039 382.314 287.795 382.314C289.031 382.314 289.992 382.722 290.678 383.536C291.363 384.351 291.706 385.517 291.706 387.034V387.711H285.264C285.287 388.648 285.56 389.407 286.081 389.987C286.608 390.562 287.276 390.849 288.085 390.849C288.659 390.849 289.146 390.731 289.544 390.497C289.942 390.263 290.291 389.952 290.59 389.565L291.583 390.339C290.786 391.563 289.591 392.176 287.997 392.176ZM287.795 383.65C287.139 383.65 286.588 383.891 286.143 384.371C285.697 384.846 285.422 385.514 285.316 386.375H290.08V386.252C290.033 385.426 289.811 384.787 289.412 384.336C289.014 383.879 288.475 383.65 287.795 383.65ZM301.646 387.351C301.646 388.804 301.312 389.973 300.645 390.857C299.977 391.736 299.08 392.176 297.955 392.176C296.754 392.176 295.825 391.751 295.169 390.901L295.09 392H293.596V378.5H295.222V383.536C295.878 382.722 296.783 382.314 297.938 382.314C299.092 382.314 299.997 382.751 300.653 383.624C301.315 384.497 301.646 385.692 301.646 387.21V387.351ZM300.021 387.166C300.021 386.059 299.807 385.203 299.379 384.6C298.951 383.996 298.336 383.694 297.533 383.694C296.461 383.694 295.69 384.192 295.222 385.188V389.302C295.72 390.298 296.496 390.796 297.551 390.796C298.33 390.796 298.937 390.494 299.37 389.891C299.804 389.287 300.021 388.379 300.021 387.166ZM309.574 392C309.48 391.812 309.404 391.479 309.346 390.998C308.59 391.783 307.688 392.176 306.639 392.176C305.701 392.176 304.931 391.912 304.327 391.385C303.729 390.852 303.431 390.178 303.431 389.363C303.431 388.373 303.806 387.605 304.556 387.061C305.312 386.51 306.372 386.234 307.737 386.234H309.319V385.487C309.319 384.919 309.149 384.468 308.81 384.134C308.47 383.794 307.969 383.624 307.307 383.624C306.727 383.624 306.24 383.771 305.848 384.063C305.455 384.356 305.259 384.711 305.259 385.127H303.624C303.624 384.652 303.791 384.195 304.125 383.756C304.465 383.311 304.922 382.959 305.496 382.701C306.076 382.443 306.712 382.314 307.403 382.314C308.499 382.314 309.357 382.59 309.979 383.141C310.6 383.686 310.922 384.438 310.945 385.399V389.776C310.945 390.649 311.057 391.344 311.279 391.859V392H309.574ZM306.876 390.761C307.386 390.761 307.869 390.629 308.326 390.365C308.783 390.102 309.114 389.759 309.319 389.337V387.386H308.045C306.053 387.386 305.057 387.969 305.057 389.135C305.057 389.645 305.227 390.043 305.566 390.33C305.906 390.617 306.343 390.761 306.876 390.761ZM318.091 383.949C317.845 383.908 317.578 383.888 317.291 383.888C316.225 383.888 315.501 384.342 315.12 385.25V392H313.494V382.49H315.076L315.103 383.589C315.636 382.739 316.392 382.314 317.37 382.314C317.687 382.314 317.927 382.355 318.091 382.438V383.949Z" fill="#44DDD0"/>
</svg>
