<svg width="386" height="428" viewBox="0 0 386 428" fill="none" xmlns="http://www.w3.org/2000/svg">
<path d="M194.658 38.83C235.178 39.6 278.758 10.74 317.208 36.2C354.718 61 353.068 105.83 333.018 141.09C303.828 192.37 257.668 179.66 212.188 201.77C169.188 222.7 149.978 268.69 94.9079 268.07C58.9079 267.67 -5.8021 230.72 0.417896 187.61C4.8079 157.23 45.5179 148.93 57.3379 120.41C74.6179 78.68 38.1079 27.64 90.1179 5.55998C138.768 -15.11 146.508 37.92 194.658 38.83Z" fill="#44DDD0"/>
<path opacity="0.9" d="M194.658 38.83C235.178 39.6 278.758 10.74 317.208 36.2C354.718 61 353.068 105.83 333.018 141.09C303.828 192.37 257.668 179.66 212.188 201.77C169.188 222.7 149.978 268.69 94.9079 268.07C58.9079 267.67 -5.8021 230.72 0.417896 187.61C4.8079 157.23 45.5179 148.93 57.3379 120.41C74.6179 78.68 38.1079 27.64 90.1179 5.55998C138.768 -15.11 146.508 37.92 194.658 38.83Z" fill="white"/>
<path d="M283.438 152.53L287.688 159.03L294.008 157.72L289.238 149.64L283.438 152.53Z" fill="#9F5B53"/>
<path d="M295.488 96.82C296.388 97.91 297.138 98.88 297.908 99.94C298.678 101 299.418 102.02 300.148 103.08C301.608 105.19 302.998 107.36 304.298 109.59C305.598 111.82 306.858 114.1 307.958 116.49C308.548 117.66 309.048 118.9 309.588 120.11C310.128 121.32 310.588 122.59 310.978 123.9L311.298 124.9L311.458 125.39C311.548 125.68 311.638 125.99 311.698 126.28C311.918 127.318 311.992 128.382 311.918 129.44C311.785 131.098 311.425 132.73 310.848 134.29C309.869 136.889 308.615 139.377 307.108 141.71C304.299 146.041 301.041 150.063 297.388 153.71L293.018 150.29C295.421 146.189 297.617 141.971 299.598 137.65C300.508 135.678 301.234 133.626 301.768 131.52C301.967 130.729 302.058 129.915 302.038 129.1C302.037 128.927 301.999 128.757 301.928 128.6L301.768 128.22L301.438 127.46C299.565 123.253 297.358 119.203 294.838 115.35C293.578 113.35 292.248 111.42 290.908 109.47C289.568 107.52 288.108 105.57 286.788 103.8L295.488 96.82Z" fill="#9F5B53"/>
<path d="M293.018 91.9C299.908 93.48 307.808 112.25 307.808 112.25L294.018 121.73C290.575 116.797 287.519 111.605 284.878 106.2C280.788 97.61 286.018 90.29 293.018 91.9Z" fill="#44DDD0"/>
<path opacity="0.8" d="M293.018 91.9C299.908 93.48 307.808 112.25 307.808 112.25L294.018 121.73C290.575 116.797 287.519 111.605 284.878 106.2C280.788 97.61 286.018 90.29 293.018 91.9Z" fill="white"/>
<path d="M288.118 103.87L294.658 121.28L294.008 121.73C294.008 121.73 291.178 117.73 288.118 112.4V103.87Z" fill="#44DDD0"/>
<path opacity="0.6" d="M288.118 103.87L294.658 121.28L294.008 121.73C294.008 121.73 291.178 117.73 288.118 112.4V103.87Z" fill="white"/>
<path d="M270.658 342.64H263.308L262.578 325.63H269.928L270.658 342.64Z" fill="#9F5B53"/>
<path d="M314.768 342.64H307.418L303.728 325.63H311.068L314.768 342.64Z" fill="#9F5B53"/>
<path d="M262.578 325.64L262.958 334.4H270.308L269.928 325.64H262.578Z" fill="#8A4743"/>
<path d="M311.078 325.64H303.728L305.628 334.4H312.978L311.078 325.64Z" fill="#8A4743"/>
<path d="M265.398 155.78C265.398 155.78 273.738 211.92 278.308 232.95C283.308 255.95 302.208 332.71 302.208 332.71H315.668C315.668 332.71 303.208 257.84 300.348 235C297.248 210.25 290.758 155.74 290.758 155.74L265.398 155.78Z" fill="#44DDD0"/>
<path opacity="0.5" d="M265.398 155.78C265.398 155.78 273.738 211.92 278.308 232.95C283.308 255.95 302.208 332.71 302.208 332.71H315.668C315.668 332.71 303.208 257.84 300.348 235C297.248 210.25 290.758 155.74 290.758 155.74L265.398 155.78Z" fill="black"/>
<path opacity="0.4" d="M270.668 175.78C280.308 177.67 279.288 213.62 278.128 232.11C275.348 219.04 271.278 193.89 268.498 176.04C269.17 175.709 269.936 175.617 270.668 175.78Z" fill="black"/>
<path d="M251.458 155.78C251.458 155.78 250.458 210.7 251.248 233.11C252.078 256.41 260.248 332.71 260.248 332.71H272.688C272.688 332.71 273.148 257.77 273.688 234.89C274.288 209.94 277.298 155.78 277.298 155.78H251.458Z" fill="#44DDD0"/>
<path opacity="0.5" d="M251.458 155.78C251.458 155.78 250.458 210.7 251.248 233.11C252.078 256.41 260.248 332.71 260.248 332.71H272.688C272.688 332.71 273.148 257.77 273.688 234.89C274.288 209.94 277.298 155.78 277.298 155.78H251.458Z" fill="black"/>
<path d="M294.608 148.72L289.238 149.64L294.008 157.72C294.008 157.72 297.748 155.92 298.428 152.43L294.608 148.72Z" fill="#9F5B53"/>
<path d="M259.118 64.6C259.118 65.19 258.808 65.67 258.418 65.67C258.028 65.67 257.718 65.19 257.718 64.6C257.718 64.01 258.028 63.53 258.418 63.53C258.808 63.53 259.118 64 259.118 64.6Z" fill="#263238"/>
<path d="M258.858 65.67C258.15 67.4811 257.198 69.1869 256.028 70.74C256.432 71.0294 256.895 71.2268 257.384 71.3183C257.873 71.4099 258.376 71.3934 258.858 71.27V65.67Z" fill="#892B29"/>
<path d="M261.218 61.32C261.145 61.3209 261.074 61.2961 261.018 61.25C260.67 60.9827 260.264 60.8024 259.832 60.7242C259.401 60.6459 258.957 60.6719 258.538 60.8C258.496 60.816 258.451 60.8235 258.406 60.8221C258.361 60.8207 258.317 60.8104 258.276 60.7918C258.235 60.7732 258.198 60.7467 258.168 60.7138C258.137 60.6809 258.113 60.6422 258.098 60.6C258.08 60.5581 258.071 60.513 258.071 60.4674C258.071 60.4219 258.08 60.3768 258.097 60.3348C258.115 60.2928 258.141 60.2548 258.174 60.2231C258.206 60.1913 258.245 60.1665 258.288 60.15C258.814 59.9802 259.374 59.9406 259.919 60.0346C260.464 60.1287 260.978 60.3536 261.418 60.69C261.456 60.715 261.489 60.7476 261.514 60.7859C261.539 60.8242 261.556 60.8673 261.563 60.9124C261.571 60.9576 261.569 61.0038 261.558 61.0481C261.546 61.0925 261.526 61.134 261.498 61.17C261.468 61.2172 261.427 61.2559 261.378 61.2822C261.328 61.3085 261.273 61.3216 261.218 61.32Z" fill="#263238"/>
<path d="M278.248 71.43C277.188 76.81 276.138 86.65 279.898 90.24C279.898 90.24 278.428 95.69 268.438 95.69C257.438 95.69 263.198 90.24 263.198 90.24C269.198 88.81 269.038 84.36 267.988 80.19L278.248 71.43Z" fill="#9F5B53"/>
<path d="M281.338 92.11C282.128 90.39 282.988 88.41 281.198 87.79C279.198 87.11 268.428 86.42 264.708 87.69C264.217 87.826 263.758 88.058 263.358 88.3726C262.957 88.6872 262.623 89.0781 262.375 89.5226C262.126 89.9672 261.969 90.4566 261.911 90.9625C261.853 91.4685 261.896 91.9808 262.038 92.47L281.338 92.11Z" fill="#44DDD0"/>
<path d="M304.468 343C304.157 343.041 303.841 343.02 303.539 342.938C303.237 342.855 302.954 342.713 302.708 342.52C302.619 342.4 302.571 342.254 302.571 342.105C302.571 341.956 302.619 341.81 302.708 341.69C302.763 341.587 302.839 341.497 302.933 341.426C303.026 341.355 303.133 341.305 303.248 341.28C304.328 341.04 306.348 342.42 306.438 342.48C306.465 342.5 306.486 342.528 306.499 342.56C306.511 342.592 306.514 342.626 306.508 342.66C306.502 342.692 306.486 342.722 306.463 342.746C306.44 342.769 306.41 342.784 306.378 342.79C305.75 342.926 305.11 342.996 304.468 343ZM303.558 341.6H303.338C303.27 341.614 303.206 341.643 303.151 341.684C303.095 341.726 303.05 341.779 303.018 341.84C302.858 342.12 302.958 342.24 303.018 342.28C303.328 342.7 304.828 342.7 305.928 342.52C305.215 342.047 304.405 341.74 303.558 341.62V341.6Z" fill="#44DDD0"/>
<path d="M306.348 342.82H306.268C305.508 342.4 304.038 340.82 304.188 339.98C304.213 339.85 304.283 339.733 304.385 339.65C304.487 339.566 304.615 339.52 304.748 339.52C304.879 339.506 305.013 339.518 305.14 339.556C305.267 339.594 305.385 339.656 305.488 339.74C306.338 340.44 306.488 342.56 306.488 342.65C306.492 342.682 306.486 342.714 306.472 342.742C306.458 342.771 306.435 342.794 306.408 342.81C306.389 342.818 306.368 342.821 306.348 342.82ZM304.868 339.82H304.788C304.558 339.82 304.538 339.96 304.528 340C304.438 340.49 305.378 341.7 306.128 342.27C306.075 341.435 305.776 340.635 305.268 339.97C305.153 339.883 305.012 339.837 304.868 339.84V339.82Z" fill="#44DDD0"/>
<path d="M260.358 343C259.418 343 258.508 342.87 258.198 342.45C258.121 342.338 258.08 342.206 258.08 342.07C258.08 341.934 258.121 341.802 258.198 341.69C258.255 341.587 258.334 341.497 258.429 341.426C258.524 341.356 258.632 341.306 258.748 341.28C259.958 340.95 262.538 342.41 262.648 342.47C262.677 342.489 262.7 342.516 262.715 342.548C262.729 342.58 262.733 342.615 262.728 342.65C262.724 342.686 262.707 342.719 262.682 342.744C262.657 342.77 262.623 342.786 262.588 342.79C261.853 342.929 261.106 342.999 260.358 343ZM259.188 341.58C259.078 341.564 258.967 341.564 258.858 341.58C258.787 341.594 258.721 341.622 258.662 341.664C258.604 341.705 258.554 341.758 258.518 341.82C258.398 342.04 258.438 342.14 258.518 342.2C258.858 342.66 260.708 342.69 262.088 342.5C261.189 342.015 260.204 341.709 259.188 341.6V341.58Z" fill="#44DDD0"/>
<path d="M262.578 342.82H262.508C261.618 342.43 259.868 340.82 259.998 340.01C259.998 339.81 260.168 339.57 260.648 339.52C260.826 339.493 261.008 339.506 261.181 339.558C261.354 339.609 261.513 339.699 261.648 339.82C262.588 340.58 262.778 342.56 262.788 342.65C262.791 342.681 262.787 342.712 262.775 342.74C262.762 342.768 262.743 342.792 262.718 342.81C262.696 342.822 262.673 342.828 262.649 342.83C262.625 342.832 262.6 342.828 262.578 342.82ZM260.788 339.82H260.678C260.368 339.82 260.348 339.98 260.338 340.02C260.258 340.52 261.458 341.77 262.338 342.31C262.251 341.47 261.901 340.679 261.338 340.05C261.184 339.918 260.99 339.844 260.788 339.84V339.82Z" fill="#44DDD0"/>
<path d="M306.898 341.79H315.148C315.295 341.791 315.437 341.842 315.552 341.935C315.666 342.027 315.746 342.156 315.778 342.3L317.228 348.83C317.261 348.989 317.258 349.153 317.218 349.311C317.179 349.469 317.105 349.615 317.001 349.74C316.897 349.865 316.767 349.965 316.619 350.033C316.471 350.1 316.31 350.133 316.148 350.13C313.268 350.08 311.868 349.91 308.238 349.91C306.008 349.91 301.408 350.15 298.318 350.15C295.228 350.15 294.838 347.15 296.098 346.82C301.758 345.58 303.888 343.87 305.708 342.25C306.032 341.952 306.457 341.787 306.898 341.79Z" fill="#263238"/>
<path d="M263.358 341.79H271.358C271.505 341.791 271.647 341.842 271.762 341.935C271.876 342.027 271.956 342.156 271.988 342.3L273.438 348.83C273.472 348.988 273.471 349.151 273.434 349.308C273.396 349.465 273.324 349.611 273.222 349.736C273.12 349.861 272.991 349.962 272.845 350.03C272.699 350.098 272.539 350.132 272.378 350.13C269.488 350.08 265.308 349.91 261.668 349.91C257.418 349.91 253.738 350.15 248.748 350.15C245.748 350.15 244.898 347.15 246.158 346.82C251.908 345.56 256.598 345.43 261.568 342.37C262.097 342.01 262.718 341.809 263.358 341.79Z" fill="#263238"/>
<path d="M252.868 106.93C249.958 111.23 246.948 115.24 243.698 119.22C240.452 123.241 236.979 127.074 233.298 130.7L231.858 132.06L231.488 132.4L231.238 132.63L230.868 132.95C230.393 133.324 229.888 133.659 229.358 133.95C227.67 134.838 225.812 135.356 223.908 135.47C221.002 135.651 218.085 135.412 215.248 134.76C210.106 133.621 205.121 131.869 200.398 129.54L202.228 124.34C206.914 125.272 211.653 125.917 216.418 126.27C218.51 126.44 220.616 126.353 222.688 126.01C223.282 125.924 223.849 125.705 224.348 125.37V125.3L224.418 125.22L224.718 124.89L225.898 123.59C229.028 120.02 232.058 116.23 234.998 112.34C237.938 108.45 240.878 104.49 243.688 100.6L252.868 106.93Z" fill="#9F5B53"/>
<path d="M256.258 108.08C255.235 114.284 252.554 120.096 248.498 124.9C248.338 121.38 248.278 118.22 248.288 115.39L256.258 108.08Z" fill="#BED3FC"/>
<path d="M278.878 63.34C278.438 70.62 278.548 74.9 274.878 78.64C269.348 84.26 260.368 80.92 258.628 73.64C257.068 67.1 258.058 56.3 265.188 53.4C266.756 52.7556 268.463 52.523 270.147 52.7244C271.83 52.9258 273.434 53.5545 274.806 54.5506C276.178 55.5468 277.272 56.8774 277.985 58.4158C278.698 59.9542 279.005 61.6493 278.878 63.34Z" fill="#9F5B53"/>
<path d="M264.738 58.5C264.798 67.06 267.578 77.56 275.858 76.83C281.358 76.35 285.538 66.32 286.108 62.07C286.978 55.57 287.108 54.33 283.448 53.58C285.048 52.71 285.628 48.58 281.888 47.58C276.688 46.21 266.888 44.87 269.968 41.7C263.828 42.81 262.288 45.27 263.408 48.26C259.818 47.98 257.608 46.1 257.718 43.26C251.768 45.67 247.908 59.3 264.738 58.5Z" fill="#263238"/>
<path d="M269.018 65.46C268.612 67.2254 267.635 68.8073 266.238 69.96C264.388 71.46 262.908 70.12 262.948 67.96C262.948 66.01 264.008 62.88 266.088 62.22C268.168 61.56 269.528 63.33 269.018 65.46Z" fill="#9F5B53"/>
<path d="M289.018 55.07C288.039 54.4468 286.921 54.0766 285.763 53.9928C284.606 53.909 283.446 54.1143 282.388 54.59C282.388 54.59 286.548 49 289.018 55.07Z" fill="#263238"/>
<path d="M300.018 327.75C299.958 327.75 301.408 332.92 301.408 332.92H316.548L316.268 328.31L300.018 327.75Z" fill="#44DDD0"/>
<path d="M257.828 327.75C257.768 327.75 258.528 332.92 258.528 332.92H273.668L274.078 328.31L257.828 327.75Z" fill="#44DDD0"/>
<path d="M262.808 323.77C262.778 323.77 262.749 323.759 262.726 323.738C262.704 323.718 262.69 323.69 262.688 323.66C260.488 302.54 255.318 251.44 254.688 233.11C254.018 214.4 254.628 172.42 254.828 160C254.828 159.93 254.888 159.89 254.958 159.88C254.989 159.882 255.018 159.896 255.04 159.918C255.062 159.94 255.075 159.969 255.078 160C254.878 172.42 254.268 214.4 254.938 233.1C255.588 251.43 260.758 302.51 262.938 323.63C262.938 323.664 262.926 323.697 262.904 323.723C262.882 323.748 262.851 323.765 262.818 323.77H262.808Z" fill="#44DDD0"/>
<path opacity="0.3" d="M262.808 323.77C262.778 323.77 262.749 323.759 262.726 323.738C262.704 323.718 262.69 323.69 262.688 323.66C260.488 302.54 255.318 251.44 254.688 233.11C254.018 214.4 254.628 172.42 254.828 160C254.828 159.93 254.888 159.89 254.958 159.88C254.989 159.882 255.018 159.896 255.04 159.918C255.062 159.94 255.075 159.969 255.078 160C254.878 172.42 254.268 214.4 254.938 233.1C255.588 251.43 260.758 302.51 262.938 323.63C262.938 323.664 262.926 323.697 262.904 323.723C262.882 323.748 262.851 323.765 262.818 323.77H262.808Z" fill="black"/>
<path d="M259.648 98.23C260.648 105.23 246.908 122.96 246.908 122.96L233.138 113.48C233.138 113.48 236.958 103.69 243.388 97.27C250.728 90 258.588 90.66 259.648 98.23Z" fill="#44DDD0"/>
<path opacity="0.8" d="M259.648 98.23C260.648 105.23 246.908 122.96 246.908 122.96L233.138 113.48C233.138 113.48 236.958 103.69 243.388 97.27C250.728 90 258.588 90.66 259.648 98.23Z" fill="white"/>
<path d="M251.898 92.28C251.898 92.28 244.078 101.11 251.458 155.78H290.758C291.028 149.78 287.238 120.32 293.048 91.9C288.705 91.0637 284.312 90.5092 279.898 90.24C274.336 89.9198 268.76 89.9198 263.198 90.24C259.384 90.6243 255.605 91.3064 251.898 92.28Z" fill="#44DDD0"/>
<path opacity="0.8" d="M251.898 92.28C251.898 92.28 244.078 101.11 251.458 155.78H290.758C291.028 149.78 287.238 120.32 293.048 91.9C288.705 91.0637 284.312 90.5092 279.898 90.24C274.336 89.9198 268.76 89.9198 263.198 90.24C259.384 90.6243 255.605 91.3064 251.898 92.28Z" fill="white"/>
<path d="M136.277 52.1447C139.415 38.3193 130.752 24.5673 116.926 21.4288C103.101 18.2903 89.3491 26.9537 86.2106 40.7791C83.0721 54.6045 91.7355 68.3565 105.561 71.495C119.386 74.6335 133.138 65.9701 136.277 52.1447Z" fill="#44DDD0"/>
<path opacity="0.2" d="M136.277 52.1447C139.415 38.3193 130.752 24.5673 116.926 21.4288C103.101 18.2903 89.3491 26.9537 86.2106 40.7791C83.0721 54.6045 91.7355 68.3565 105.561 71.495C119.386 74.6335 133.138 65.9701 136.277 52.1447Z" fill="white"/>
<path d="M108.608 79.75C101.968 79.2372 95.6355 76.7418 90.4308 72.5873C85.2262 68.4329 81.3894 62.8109 79.4177 56.45L80.3677 56.15C82.2816 62.3202 86.0045 67.7734 91.054 71.803C96.1034 75.8325 102.247 78.2528 108.688 78.75L108.608 79.75Z" fill="#44DDD0"/>
<path opacity="0.2" d="M108.608 79.75C101.968 79.2372 95.6355 76.7418 90.4308 72.5873C85.2262 68.4329 81.3894 62.8109 79.4177 56.45L80.3677 56.15C82.2816 62.3202 86.0045 67.7734 91.054 71.803C96.1034 75.8325 102.247 78.2528 108.688 78.75L108.608 79.75Z" fill="white"/>
<path d="M80.2278 37.22L79.2278 36.94C80.5168 32.6329 82.6626 28.6305 85.5365 25.1731C88.4104 21.7156 91.9531 18.8744 95.952 16.8198C99.951 14.7652 104.324 13.5397 108.808 13.2166C113.292 12.8936 117.796 13.4798 122.048 14.94L121.728 15.89C117.6 14.475 113.229 13.9083 108.877 14.2238C104.525 14.5394 100.282 15.7308 96.4018 17.7265C92.5215 19.7221 89.0844 22.481 86.2965 25.8376C83.5086 29.1942 81.4274 33.0794 80.1778 37.26L80.2278 37.22Z" fill="#44DDD0"/>
<path opacity="0.2" d="M80.2278 37.22L79.2278 36.94C80.5168 32.6329 82.6626 28.6305 85.5365 25.1731C88.4104 21.7156 91.9531 18.8744 95.952 16.8198C99.951 14.7652 104.324 13.5397 108.808 13.2166C113.292 12.8936 117.796 13.4798 122.048 14.94L121.728 15.89C117.6 14.475 113.229 13.9083 108.877 14.2238C104.525 14.5394 100.282 15.7308 96.4018 17.7265C92.5215 19.7221 89.0844 22.481 86.2965 25.8376C83.5086 29.1942 81.4274 33.0794 80.1778 37.26L80.2278 37.22Z" fill="white"/>
<path d="M142.158 36.79C139.82 29.3134 134.844 22.9412 128.158 18.86L128.678 18C135.564 22.2147 140.688 28.7844 143.098 36.49L142.158 36.79Z" fill="#44DDD0"/>
<path opacity="0.2" d="M142.158 36.79C139.82 29.3134 134.844 22.9412 128.158 18.86L128.678 18C135.564 22.2147 140.688 28.7844 143.098 36.49L142.158 36.79Z" fill="white"/>
<path d="M136.288 123.004C139.427 109.178 130.763 95.4264 116.938 92.2879C103.113 89.1494 89.3606 97.8128 86.2221 111.638C83.0836 125.464 91.747 139.216 105.572 142.354C119.398 145.493 133.15 136.829 136.288 123.004Z" fill="#44DDD0"/>
<path opacity="0.6" d="M136.288 123.004C139.427 109.178 130.763 95.4264 116.938 92.2879C103.113 89.1494 89.3606 97.8128 86.2221 111.638C83.0836 125.464 91.747 139.216 105.572 142.354C119.398 145.493 133.15 136.829 136.288 123.004Z" fill="white"/>
<path d="M136.28 193.861C139.419 180.035 130.755 166.283 116.93 163.145C103.104 160.006 89.3525 168.67 86.214 182.495C83.0755 196.32 91.7389 210.072 105.564 213.211C119.39 216.349 133.142 207.686 136.28 193.861Z" fill="#44DDD0"/>
<path opacity="0.6" d="M136.28 193.861C139.419 180.035 130.755 166.283 116.93 163.145C103.104 160.006 89.3525 168.67 86.214 182.495C83.0755 196.32 91.7389 210.072 105.564 213.211C119.39 216.349 133.142 207.686 136.28 193.861Z" fill="white"/>
<path d="M136.282 264.73C139.42 250.904 130.757 237.152 116.931 234.014C103.106 230.875 89.354 239.539 86.2155 253.364C83.077 267.19 91.7404 280.941 105.566 284.08C119.391 287.219 133.143 278.555 136.282 264.73Z" fill="#44DDD0"/>
<path opacity="0.6" d="M136.282 264.73C139.42 250.904 130.757 237.152 116.931 234.014C103.106 230.875 89.354 239.539 86.2155 253.364C83.077 267.19 91.7404 280.941 105.566 284.08C119.391 287.219 133.143 278.555 136.282 264.73Z" fill="white"/>
<path d="M65.4198 52.1365C68.5583 38.3111 59.8949 24.5592 46.0695 21.4206C32.2441 18.2821 18.4922 26.9456 15.3537 40.7709C12.2152 54.5963 20.8786 68.3483 34.704 71.4868C48.5294 74.6253 62.2813 65.9619 65.4198 52.1365Z" fill="#44DDD0"/>
<path opacity="0.6" d="M65.4198 52.1365C68.5583 38.3111 59.8949 24.5592 46.0695 21.4206C32.2441 18.2821 18.4922 26.9456 15.3537 40.7709C12.2152 54.5963 20.8786 68.3483 34.704 71.4868C48.5294 74.6253 62.2813 65.9619 65.4198 52.1365Z" fill="white"/>
<path d="M65.4313 123.006C68.5698 109.18 59.9064 95.4282 46.081 92.2897C32.2556 89.1512 18.5037 97.8146 15.3652 111.64C12.2266 125.465 20.8901 139.217 34.7154 142.356C48.5408 145.494 62.2928 136.831 65.4313 123.006Z" fill="#44DDD0"/>
<path opacity="0.6" d="M65.4313 123.006C68.5698 109.18 59.9064 95.4282 46.081 92.2897C32.2556 89.1512 18.5037 97.8146 15.3652 111.64C12.2266 125.465 20.8901 139.217 34.7154 142.356C48.5408 145.494 62.2928 136.831 65.4313 123.006Z" fill="white"/>
<path d="M65.4232 193.862C68.5618 180.037 59.8983 166.285 46.073 163.147C32.2476 160.008 18.4956 168.672 15.3571 182.497C12.2186 196.322 20.882 210.074 34.7074 213.213C48.5328 216.351 62.2847 207.688 65.4232 193.862Z" fill="#44DDD0"/>
<path opacity="0.6" d="M65.4232 193.862C68.5618 180.037 59.8983 166.285 46.073 163.147C32.2476 160.008 18.4956 168.672 15.3571 182.497C12.2186 196.322 20.882 210.074 34.7074 213.213C48.5328 216.351 62.2847 207.688 65.4232 193.862Z" fill="white"/>
<path d="M65.4247 264.722C68.5632 250.896 59.8998 237.144 46.0744 234.006C32.249 230.867 18.4971 239.531 15.3586 253.356C12.22 267.181 20.8835 280.933 34.7089 284.072C48.5343 287.21 62.2862 278.547 65.4247 264.722Z" fill="#44DDD0"/>
<path opacity="0.6" d="M65.4247 264.722C68.5632 250.896 59.8998 237.144 46.0744 234.006C32.249 230.867 18.4971 239.531 15.3586 253.356C12.22 267.181 20.8835 280.933 34.7089 284.072C48.5343 287.21 62.2862 278.547 65.4247 264.722Z" fill="white"/>
<path d="M203.218 124.88L197.828 119.3L192.078 126.72C192.078 126.72 196.458 130.94 201.668 129.72L203.218 124.88Z" fill="#9F5B53"/>
<path d="M190.418 116.24L187.958 124.02L192.078 126.72L197.828 119.3L190.418 116.24Z" fill="#9F5B53"/>
<path d="M117.018 116.66C117.464 115.336 118.191 114.123 119.15 113.107C120.109 112.09 121.276 111.293 122.572 110.771C123.868 110.248 125.262 110.012 126.658 110.079C128.053 110.147 129.418 110.515 130.658 111.16L124.658 108.04C122.437 106.918 120.72 105 119.849 102.669C118.978 100.338 119.017 97.7638 119.958 95.46C120.491 94.2455 121.267 93.1531 122.238 92.2503C123.209 91.3475 124.356 90.6535 125.606 90.2111C126.856 89.7688 128.184 89.5875 129.507 89.6784C130.83 89.7694 132.12 90.1307 133.298 90.74L127.298 87.63C125.074 86.5075 123.356 84.5881 122.485 82.2546C121.613 79.9211 121.654 77.345 122.598 75.04C123.129 73.8148 123.908 72.7126 124.886 71.8027C125.863 70.8928 127.019 70.1949 128.279 69.7526C129.539 69.3103 130.877 69.1333 132.209 69.2327C133.54 69.332 134.837 69.7056 136.018 70.33L107.528 55.43C105.432 54.3823 103.777 52.6223 102.861 50.4655C101.945 48.3086 101.827 45.896 102.528 43.66C102.976 42.3363 103.706 41.1252 104.665 40.1095C105.625 39.0938 106.794 38.2976 108.09 37.7752C109.386 37.2529 110.78 37.0169 112.176 37.0833C113.572 37.1497 114.937 37.517 116.178 38.16L176.178 69.53L170.018 44.25C169.411 41.7103 169.791 39.0349 171.08 36.7641C172.369 34.4932 174.472 32.7962 176.963 32.0155C179.455 31.2348 182.15 31.4287 184.505 32.5581C186.859 33.6874 188.697 35.668 189.648 38.1L209.328 89.22C211.013 93.5892 214.23 97.1967 218.378 99.37L221.808 101.16C222.334 101.434 222.8 101.809 223.18 102.264C223.56 102.719 223.847 103.244 224.024 103.81C224.2 104.376 224.263 104.971 224.209 105.562C224.155 106.152 223.985 106.726 223.708 107.25L199.708 153.1C199.152 154.16 198.199 154.956 197.058 155.314C195.916 155.672 194.679 155.562 193.618 155.01L185.198 150.61C182.009 148.973 178.435 148.234 174.858 148.47C166.21 148.953 157.592 147.087 149.918 143.07L121.918 128.43C119.84 127.366 118.207 125.599 117.31 123.443C116.412 121.288 116.309 118.884 117.018 116.66Z" fill="#44DDD0"/>
<path d="M195.758 157C194.79 157.001 193.836 156.768 192.978 156.32L184.558 151.92C181.608 150.409 178.306 149.719 174.998 149.92C166.08 150.42 157.193 148.499 149.278 144.36L121.278 129.72C118.879 128.493 116.993 126.455 115.955 123.969C114.917 121.482 114.794 118.708 115.608 116.14C116.122 114.608 116.963 113.206 118.073 112.031C119.184 110.857 120.537 109.939 122.038 109.34C122.445 109.172 122.862 109.031 123.288 108.92C120.95 107.519 119.193 105.324 118.338 102.736C117.483 100.148 117.586 97.3386 118.628 94.82C119.232 93.4085 120.126 92.1392 121.25 91.0938C122.375 90.0483 123.706 89.25 125.158 88.75C125.428 88.66 125.698 88.57 125.968 88.5C123.629 87.1 121.871 84.9055 121.015 82.3168C120.16 79.7282 120.263 76.9183 121.308 74.4C121.914 72.9903 122.807 71.723 123.932 70.6793C125.057 69.6357 126.387 68.8388 127.838 68.34C128.088 68.25 128.348 68.17 128.598 68.1L106.838 56.72C104.439 55.4927 102.553 53.4549 101.515 50.9686C100.477 48.4823 100.354 45.7085 101.168 43.14C101.686 41.6118 102.528 40.2135 103.636 39.0409C104.744 37.8683 106.093 36.949 107.59 36.346C109.086 35.743 110.696 35.4704 112.307 35.5471C113.919 35.6237 115.495 36.0477 116.928 36.79L174.018 66.67L168.628 44.6C167.937 41.6913 168.375 38.6286 169.855 36.0307C171.335 33.4329 173.745 31.4936 176.6 30.6048C179.454 29.7159 182.54 29.9437 185.233 31.2422C187.926 32.5407 190.026 34.813 191.108 37.6L210.788 88.72C212.343 92.7503 215.311 96.0772 219.138 98.08L222.558 99.87C223.258 100.235 223.879 100.734 224.386 101.34C224.893 101.945 225.275 102.644 225.511 103.398C225.747 104.151 225.832 104.944 225.761 105.73C225.69 106.516 225.465 107.281 225.098 107.98L201.098 153.84C200.58 154.803 199.809 155.607 198.868 156.164C197.927 156.721 196.851 157.01 195.758 157ZM176.128 146.91C179.543 146.891 182.911 147.698 185.948 149.26L194.368 153.66C194.718 153.846 195.102 153.96 195.496 153.997C195.891 154.034 196.289 153.992 196.668 153.874C197.046 153.756 197.398 153.564 197.701 153.309C198.005 153.054 198.256 152.742 198.438 152.39L222.438 106.53C222.622 106.18 222.735 105.796 222.77 105.402C222.805 105.008 222.762 104.611 222.643 104.234C222.524 103.856 222.331 103.506 222.077 103.203C221.822 102.901 221.51 102.652 221.158 102.47L217.738 100.68C213.279 98.3419 209.824 94.4601 208.018 89.76L188.328 38.64C187.537 36.5346 185.971 34.8119 183.95 33.8254C181.929 32.8389 179.607 32.6637 177.461 33.3355C175.314 34.0074 173.507 35.4755 172.409 37.4383C171.311 39.4011 171.007 41.7097 171.558 43.89L177.738 69.18C177.806 69.459 177.793 69.7518 177.699 70.0233C177.605 70.2947 177.434 70.5332 177.208 70.71C176.982 70.8905 176.708 71.0009 176.42 71.0276C176.133 71.0542 175.843 70.996 175.588 70.86L115.588 39.49C114.542 38.9463 113.391 38.6353 112.214 38.5784C111.037 38.5214 109.861 38.7198 108.768 39.16C107.661 39.5913 106.664 40.2639 105.849 41.1287C105.034 41.9936 104.422 43.0291 104.058 44.16C103.461 46.0565 103.557 48.1036 104.33 49.9355C105.103 51.7674 106.503 53.2648 108.278 54.16L136.778 69.06C137.131 69.2443 137.396 69.5612 137.515 69.941C137.634 70.3207 137.597 70.7323 137.413 71.085C137.322 71.2597 137.197 71.4146 137.046 71.541C136.895 71.6675 136.72 71.7629 136.532 71.8219C136.152 71.941 135.741 71.9043 135.388 71.72C134.393 71.2037 133.303 70.8973 132.185 70.8199C131.067 70.7425 129.944 70.8957 128.888 71.27C127.827 71.6355 126.854 72.2182 126.031 72.981C125.208 73.7438 124.553 74.6698 124.108 75.7C123.312 77.6543 123.282 79.8367 124.023 81.8123C124.764 83.788 126.223 85.4118 128.108 86.36L134.108 89.48C134.431 89.6796 134.666 89.9941 134.766 90.3601C134.866 90.726 134.823 91.1163 134.647 91.4523C134.471 91.7882 134.174 92.0449 133.816 92.1707C133.458 92.2965 133.066 92.2819 132.718 92.13C131.724 91.6156 130.636 91.3103 129.52 91.2329C128.403 91.1555 127.283 91.3077 126.228 91.68C125.167 92.0477 124.193 92.6324 123.371 93.3968C122.548 94.1612 121.893 95.0886 121.448 96.12C120.655 98.0731 120.626 100.253 121.367 102.226C122.108 104.2 123.565 105.822 125.448 106.77L131.448 109.89C131.801 110.074 132.066 110.391 132.185 110.771C132.304 111.151 132.267 111.562 132.083 111.915C131.899 112.268 131.582 112.533 131.202 112.652C130.822 112.771 130.411 112.734 130.058 112.55C129.011 112.01 127.86 111.703 126.683 111.647C125.506 111.592 124.331 111.791 123.238 112.23C122.135 112.666 121.142 113.341 120.329 114.205C119.517 115.069 118.905 116.102 118.538 117.23C117.939 119.126 118.034 121.174 118.807 123.007C119.581 124.839 120.981 126.336 122.758 127.23L150.758 141.87C158.177 145.705 166.49 147.477 174.828 147C175.268 147 175.698 146.93 176.128 146.93V146.91Z" fill="#44DDD0"/>
<path d="M138.148 116.57C137.904 116.572 137.664 116.513 137.448 116.4L130.018 112.49C129.843 112.399 129.688 112.274 129.562 112.123C129.436 111.972 129.34 111.797 129.281 111.609C129.222 111.421 129.201 111.223 129.218 111.027C129.236 110.831 129.292 110.64 129.383 110.465C129.474 110.29 129.599 110.135 129.75 110.009C129.901 109.882 130.076 109.787 130.264 109.728C130.452 109.669 130.65 109.648 130.846 109.665C131.042 109.683 131.233 109.739 131.408 109.83L138.878 113.74C139.175 113.895 139.412 114.145 139.551 114.451C139.689 114.756 139.721 115.099 139.642 115.425C139.562 115.751 139.376 116.041 139.112 116.248C138.849 116.456 138.523 116.569 138.188 116.57H138.148Z" fill="#44DDD0"/>
<path d="M140.828 96.15C140.584 96.1531 140.343 96.0946 140.128 95.98L132.658 92.07C132.469 91.9875 132.299 91.8671 132.159 91.7161C132.019 91.5652 131.912 91.387 131.843 91.1927C131.775 90.9984 131.748 90.7921 131.762 90.5867C131.777 90.3813 131.835 90.1811 131.93 89.9987C132.026 89.8163 132.158 89.6556 132.319 89.5265C132.479 89.3975 132.664 89.3029 132.863 89.2486C133.062 89.1943 133.269 89.1815 133.473 89.211C133.677 89.2404 133.873 89.3116 134.048 89.42L141.518 93.32C141.815 93.4751 142.052 93.7254 142.191 94.0309C142.329 94.3364 142.361 94.6795 142.282 95.0053C142.202 95.3312 142.016 95.621 141.752 95.8285C141.489 96.036 141.163 96.1492 140.828 96.15Z" fill="#44DDD0"/>
<path d="M143.498 75.74C143.258 75.7372 143.022 75.679 142.808 75.57L135.338 71.66C135.163 71.5687 135.008 71.4439 134.882 71.2928C134.755 71.1416 134.66 70.967 134.601 70.779C134.542 70.591 134.521 70.3931 134.538 70.1969C134.556 70.0006 134.612 69.8096 134.703 69.635C134.794 69.4603 134.919 69.3054 135.07 69.1789C135.221 69.0525 135.396 68.957 135.584 68.8981C135.772 68.8391 135.97 68.8178 136.166 68.8353C136.362 68.8527 136.553 68.9087 136.728 69L144.198 72.91C144.496 73.0655 144.733 73.3166 144.872 73.6231C145.01 73.9296 145.041 74.2737 144.96 74.6002C144.88 74.9266 144.692 75.2164 144.426 75.4231C144.161 75.6298 143.834 75.7414 143.498 75.74Z" fill="#44DDD0"/>
<path opacity="0.3" d="M195.758 157C194.79 157.001 193.836 156.768 192.978 156.32L184.558 151.92C181.608 150.409 178.306 149.719 174.998 149.92C166.08 150.42 157.193 148.499 149.278 144.36L121.278 129.72C118.879 128.493 116.993 126.455 115.955 123.969C114.917 121.482 114.794 118.708 115.608 116.14C116.122 114.608 116.963 113.206 118.073 112.031C119.184 110.857 120.537 109.939 122.038 109.34C122.445 109.172 122.862 109.031 123.288 108.92C120.95 107.519 119.193 105.324 118.338 102.736C117.483 100.148 117.586 97.3386 118.628 94.82C119.232 93.4085 120.126 92.1392 121.25 91.0938C122.375 90.0483 123.706 89.25 125.158 88.75C125.428 88.66 125.698 88.57 125.968 88.5C123.629 87.1 121.871 84.9055 121.015 82.3168C120.16 79.7282 120.263 76.9183 121.308 74.4C121.914 72.9903 122.807 71.723 123.932 70.6793C125.057 69.6357 126.387 68.8388 127.838 68.34C128.088 68.25 128.348 68.17 128.598 68.1L106.838 56.72C104.439 55.4927 102.553 53.4549 101.515 50.9686C100.477 48.4823 100.354 45.7085 101.168 43.14C101.686 41.6118 102.528 40.2135 103.636 39.0409C104.744 37.8683 106.093 36.949 107.59 36.346C109.086 35.743 110.696 35.4704 112.307 35.5471C113.919 35.6237 115.495 36.0477 116.928 36.79L174.018 66.67L168.628 44.6C167.937 41.6913 168.375 38.6286 169.855 36.0307C171.335 33.4329 173.745 31.4936 176.6 30.6048C179.454 29.7159 182.54 29.9437 185.233 31.2422C187.926 32.5407 190.026 34.813 191.108 37.6L210.788 88.72C212.343 92.7503 215.311 96.0772 219.138 98.08L222.558 99.87C223.258 100.235 223.879 100.734 224.386 101.34C224.893 101.945 225.275 102.644 225.511 103.398C225.747 104.151 225.832 104.944 225.761 105.73C225.69 106.516 225.465 107.281 225.098 107.98L201.098 153.84C200.58 154.803 199.809 155.607 198.868 156.164C197.927 156.721 196.851 157.01 195.758 157ZM176.128 146.91C179.543 146.891 182.911 147.698 185.948 149.26L194.368 153.66C194.718 153.846 195.102 153.96 195.496 153.997C195.891 154.034 196.289 153.992 196.668 153.874C197.046 153.756 197.398 153.564 197.701 153.309C198.005 153.054 198.256 152.742 198.438 152.39L222.438 106.53C222.622 106.18 222.735 105.796 222.77 105.402C222.805 105.008 222.762 104.611 222.643 104.234C222.524 103.856 222.331 103.506 222.077 103.203C221.822 102.901 221.51 102.652 221.158 102.47L217.738 100.68C213.279 98.3419 209.824 94.4601 208.018 89.76L188.328 38.64C187.537 36.5346 185.971 34.8119 183.95 33.8254C181.929 32.8389 179.607 32.6637 177.461 33.3355C175.314 34.0074 173.507 35.4755 172.409 37.4383C171.311 39.4011 171.007 41.7097 171.558 43.89L177.738 69.18C177.806 69.459 177.793 69.7518 177.699 70.0233C177.605 70.2947 177.434 70.5332 177.208 70.71C176.982 70.8905 176.708 71.0009 176.42 71.0276C176.133 71.0542 175.843 70.996 175.588 70.86L115.588 39.49C114.542 38.9463 113.391 38.6353 112.214 38.5784C111.037 38.5214 109.861 38.7198 108.768 39.16C107.661 39.5913 106.664 40.2639 105.849 41.1287C105.034 41.9936 104.422 43.0291 104.058 44.16C103.461 46.0565 103.557 48.1036 104.33 49.9355C105.103 51.7674 106.503 53.2648 108.278 54.16L136.778 69.06C137.131 69.2443 137.396 69.5612 137.515 69.941C137.634 70.3207 137.597 70.7323 137.413 71.085C137.322 71.2597 137.197 71.4146 137.046 71.541C136.895 71.6675 136.72 71.7629 136.532 71.8219C136.152 71.941 135.741 71.9043 135.388 71.72C134.393 71.2037 133.303 70.8973 132.185 70.8199C131.067 70.7425 129.944 70.8957 128.888 71.27C127.827 71.6355 126.854 72.2182 126.031 72.981C125.208 73.7438 124.553 74.6698 124.108 75.7C123.312 77.6543 123.282 79.8367 124.023 81.8123C124.764 83.788 126.223 85.4118 128.108 86.36L134.108 89.48C134.431 89.6796 134.666 89.9941 134.766 90.3601C134.866 90.726 134.823 91.1163 134.647 91.4523C134.471 91.7882 134.174 92.0449 133.816 92.1707C133.458 92.2965 133.066 92.2819 132.718 92.13C131.724 91.6156 130.636 91.3103 129.52 91.2329C128.403 91.1555 127.283 91.3077 126.228 91.68C125.167 92.0477 124.193 92.6324 123.371 93.3968C122.548 94.1612 121.893 95.0886 121.448 96.12C120.655 98.0731 120.626 100.253 121.367 102.226C122.108 104.2 123.565 105.822 125.448 106.77L131.448 109.89C131.801 110.074 132.066 110.391 132.185 110.771C132.304 111.151 132.267 111.562 132.083 111.915C131.899 112.268 131.582 112.533 131.202 112.652C130.822 112.771 130.411 112.734 130.058 112.55C129.011 112.01 127.86 111.703 126.683 111.647C125.506 111.592 124.331 111.791 123.238 112.23C122.135 112.666 121.142 113.341 120.329 114.205C119.517 115.069 118.905 116.102 118.538 117.23C117.939 119.126 118.034 121.174 118.807 123.007C119.581 124.839 120.981 126.336 122.758 127.23L150.758 141.87C158.177 145.705 166.49 147.477 174.828 147C175.268 147 175.698 146.93 176.128 146.93V146.91Z" fill="black"/>
<path d="M14.2305 408.32V415H11.9805V397.938H18.2734C20.1406 397.938 21.6016 398.414 22.6562 399.367C23.7188 400.32 24.25 401.582 24.25 403.152C24.25 404.809 23.7305 406.086 22.6914 406.984C21.6602 407.875 20.1797 408.32 18.25 408.32H14.2305ZM14.2305 406.48H18.2734C19.4766 406.48 20.3984 406.199 21.0391 405.637C21.6797 405.066 22 404.246 22 403.176C22 402.16 21.6797 401.348 21.0391 400.738C20.3984 400.129 19.5195 399.812 18.4023 399.789H14.2305V406.48ZM29.1367 415H26.9688V397H29.1367V415ZM37.8789 415.234C36.1602 415.234 34.7617 414.672 33.6836 413.547C32.6055 412.414 32.0664 410.902 32.0664 409.012V408.613C32.0664 407.355 32.3047 406.234 32.7812 405.25C33.2656 404.258 33.9375 403.484 34.7969 402.93C35.6641 402.367 36.6016 402.086 37.6094 402.086C39.2578 402.086 40.5391 402.629 41.4531 403.715C42.3672 404.801 42.8242 406.355 42.8242 408.379V409.281H34.2344C34.2656 410.531 34.6289 411.543 35.3242 412.316C36.0273 413.082 36.918 413.465 37.9961 413.465C38.7617 413.465 39.4102 413.309 39.9414 412.996C40.4727 412.684 40.9375 412.27 41.3359 411.754L42.6602 412.785C41.5977 414.418 40.0039 415.234 37.8789 415.234ZM37.6094 403.867C36.7344 403.867 36 404.188 35.4062 404.828C34.8125 405.461 34.4453 406.352 34.3047 407.5H40.6562V407.336C40.5938 406.234 40.2969 405.383 39.7656 404.781C39.2344 404.172 38.5156 403.867 37.6094 403.867ZM53.1719 415C53.0469 414.75 52.9453 414.305 52.8672 413.664C51.8594 414.711 50.6562 415.234 49.2578 415.234C48.0078 415.234 46.9805 414.883 46.1758 414.18C45.3789 413.469 44.9805 412.57 44.9805 411.484C44.9805 410.164 45.4805 409.141 46.4805 408.414C47.4883 407.68 48.9023 407.312 50.7227 407.312H52.832V406.316C52.832 405.559 52.6055 404.957 52.1523 404.512C51.6992 404.059 51.0312 403.832 50.1484 403.832C49.375 403.832 48.7266 404.027 48.2031 404.418C47.6797 404.809 47.418 405.281 47.418 405.836H45.2383C45.2383 405.203 45.4609 404.594 45.9062 404.008C46.3594 403.414 46.9688 402.945 47.7344 402.602C48.5078 402.258 49.3555 402.086 50.2773 402.086C51.7383 402.086 52.8828 402.453 53.7109 403.188C54.5391 403.914 54.9688 404.918 55 406.199V412.035C55 413.199 55.1484 414.125 55.4453 414.812V415H53.1719ZM49.5742 413.348C50.2539 413.348 50.8984 413.172 51.5078 412.82C52.1172 412.469 52.5586 412.012 52.832 411.449V408.848H51.1328C48.4766 408.848 47.1484 409.625 47.1484 411.18C47.1484 411.859 47.375 412.391 47.8281 412.773C48.2812 413.156 48.8633 413.348 49.5742 413.348ZM65.7812 411.637C65.7812 411.051 65.5586 410.598 65.1133 410.277C64.6758 409.949 63.9062 409.668 62.8047 409.434C61.7109 409.199 60.8398 408.918 60.1914 408.59C59.5508 408.262 59.0742 407.871 58.7617 407.418C58.457 406.965 58.3047 406.426 58.3047 405.801C58.3047 404.762 58.7422 403.883 59.6172 403.164C60.5 402.445 61.625 402.086 62.9922 402.086C64.4297 402.086 65.5938 402.457 66.4844 403.199C67.3828 403.941 67.832 404.891 67.832 406.047H65.6523C65.6523 405.453 65.3984 404.941 64.8906 404.512C64.3906 404.082 63.7578 403.867 62.9922 403.867C62.2031 403.867 61.5859 404.039 61.1406 404.383C60.6953 404.727 60.4727 405.176 60.4727 405.73C60.4727 406.254 60.6797 406.648 61.0938 406.914C61.5078 407.18 62.2539 407.434 63.332 407.676C64.418 407.918 65.2969 408.207 65.9688 408.543C66.6406 408.879 67.1367 409.285 67.457 409.762C67.7852 410.23 67.9492 410.805 67.9492 411.484C67.9492 412.617 67.4961 413.527 66.5898 414.215C65.6836 414.895 64.5078 415.234 63.0625 415.234C62.0469 415.234 61.1484 415.055 60.3672 414.695C59.5859 414.336 58.9727 413.836 58.5273 413.195C58.0898 412.547 57.8711 411.848 57.8711 411.098H60.0391C60.0781 411.824 60.3672 412.402 60.9062 412.832C61.4531 413.254 62.1719 413.465 63.0625 413.465C63.8828 413.465 64.5391 413.301 65.0312 412.973C65.5312 412.637 65.7812 412.191 65.7812 411.637ZM76.0352 415.234C74.3164 415.234 72.918 414.672 71.8398 413.547C70.7617 412.414 70.2227 410.902 70.2227 409.012V408.613C70.2227 407.355 70.4609 406.234 70.9375 405.25C71.4219 404.258 72.0938 403.484 72.9531 402.93C73.8203 402.367 74.7578 402.086 75.7656 402.086C77.4141 402.086 78.6953 402.629 79.6094 403.715C80.5234 404.801 80.9805 406.355 80.9805 408.379V409.281H72.3906C72.4219 410.531 72.7852 411.543 73.4805 412.316C74.1836 413.082 75.0742 413.465 76.1523 413.465C76.918 413.465 77.5664 413.309 78.0977 412.996C78.6289 412.684 79.0938 412.27 79.4922 411.754L80.8164 412.785C79.7539 414.418 78.1602 415.234 76.0352 415.234ZM75.7656 403.867C74.8906 403.867 74.1562 404.188 73.5625 404.828C72.9688 405.461 72.6016 406.352 72.4609 407.5H78.8125V407.336C78.75 406.234 78.4531 405.383 77.9219 404.781C77.3906 404.172 76.6719 403.867 75.7656 403.867ZM96.8359 411.637C96.8359 411.051 96.6133 410.598 96.168 410.277C95.7305 409.949 94.9609 409.668 93.8594 409.434C92.7656 409.199 91.8945 408.918 91.2461 408.59C90.6055 408.262 90.1289 407.871 89.8164 407.418C89.5117 406.965 89.3594 406.426 89.3594 405.801C89.3594 404.762 89.7969 403.883 90.6719 403.164C91.5547 402.445 92.6797 402.086 94.0469 402.086C95.4844 402.086 96.6484 402.457 97.5391 403.199C98.4375 403.941 98.8867 404.891 98.8867 406.047H96.707C96.707 405.453 96.4531 404.941 95.9453 404.512C95.4453 404.082 94.8125 403.867 94.0469 403.867C93.2578 403.867 92.6406 404.039 92.1953 404.383C91.75 404.727 91.5273 405.176 91.5273 405.73C91.5273 406.254 91.7344 406.648 92.1484 406.914C92.5625 407.18 93.3086 407.434 94.3867 407.676C95.4727 407.918 96.3516 408.207 97.0234 408.543C97.6953 408.879 98.1914 409.285 98.5117 409.762C98.8398 410.23 99.0039 410.805 99.0039 411.484C99.0039 412.617 98.5508 413.527 97.6445 414.215C96.7383 414.895 95.5625 415.234 94.1172 415.234C93.1016 415.234 92.2031 415.055 91.4219 414.695C90.6406 414.336 90.0273 413.836 89.582 413.195C89.1445 412.547 88.9258 411.848 88.9258 411.098H91.0938C91.1328 411.824 91.4219 412.402 91.9609 412.832C92.5078 413.254 93.2266 413.465 94.1172 413.465C94.9375 413.465 95.5938 413.301 96.0859 412.973C96.5859 412.637 96.8359 412.191 96.8359 411.637ZM107.09 415.234C105.371 415.234 103.973 414.672 102.895 413.547C101.816 412.414 101.277 410.902 101.277 409.012V408.613C101.277 407.355 101.516 406.234 101.992 405.25C102.477 404.258 103.148 403.484 104.008 402.93C104.875 402.367 105.812 402.086 106.82 402.086C108.469 402.086 109.75 402.629 110.664 403.715C111.578 404.801 112.035 406.355 112.035 408.379V409.281H103.445C103.477 410.531 103.84 411.543 104.535 412.316C105.238 413.082 106.129 413.465 107.207 413.465C107.973 413.465 108.621 413.309 109.152 412.996C109.684 412.684 110.148 412.27 110.547 411.754L111.871 412.785C110.809 414.418 109.215 415.234 107.09 415.234ZM106.82 403.867C105.945 403.867 105.211 404.188 104.617 404.828C104.023 405.461 103.656 406.352 103.516 407.5H109.867V407.336C109.805 406.234 109.508 405.383 108.977 404.781C108.445 404.172 107.727 403.867 106.82 403.867ZM116.91 415H114.742V397H116.91V415ZM125.652 415.234C123.934 415.234 122.535 414.672 121.457 413.547C120.379 412.414 119.84 410.902 119.84 409.012V408.613C119.84 407.355 120.078 406.234 120.555 405.25C121.039 404.258 121.711 403.484 122.57 402.93C123.438 402.367 124.375 402.086 125.383 402.086C127.031 402.086 128.312 402.629 129.227 403.715C130.141 404.801 130.598 406.355 130.598 408.379V409.281H122.008C122.039 410.531 122.402 411.543 123.098 412.316C123.801 413.082 124.691 413.465 125.77 413.465C126.535 413.465 127.184 413.309 127.715 412.996C128.246 412.684 128.711 412.27 129.109 411.754L130.434 412.785C129.371 414.418 127.777 415.234 125.652 415.234ZM125.383 403.867C124.508 403.867 123.773 404.188 123.18 404.828C122.586 405.461 122.219 406.352 122.078 407.5H128.43V407.336C128.367 406.234 128.07 405.383 127.539 404.781C127.008 404.172 126.289 403.867 125.383 403.867ZM138.203 413.465C138.977 413.465 139.652 413.23 140.23 412.762C140.809 412.293 141.129 411.707 141.191 411.004H143.242C143.203 411.73 142.953 412.422 142.492 413.078C142.031 413.734 141.414 414.258 140.641 414.648C139.875 415.039 139.062 415.234 138.203 415.234C136.477 415.234 135.102 414.66 134.078 413.512C133.062 412.355 132.555 410.777 132.555 408.777V408.414C132.555 407.18 132.781 406.082 133.234 405.121C133.688 404.16 134.336 403.414 135.18 402.883C136.031 402.352 137.035 402.086 138.191 402.086C139.613 402.086 140.793 402.512 141.73 403.363C142.676 404.215 143.18 405.32 143.242 406.68H141.191C141.129 405.859 140.816 405.188 140.254 404.664C139.699 404.133 139.012 403.867 138.191 403.867C137.09 403.867 136.234 404.266 135.625 405.062C135.023 405.852 134.723 406.996 134.723 408.496V408.906C134.723 410.367 135.023 411.492 135.625 412.281C136.227 413.07 137.086 413.465 138.203 413.465ZM148.621 399.25V402.32H150.988V403.996H148.621V411.859C148.621 412.367 148.727 412.75 148.938 413.008C149.148 413.258 149.508 413.383 150.016 413.383C150.266 413.383 150.609 413.336 151.047 413.242V415C150.477 415.156 149.922 415.234 149.383 415.234C148.414 415.234 147.684 414.941 147.191 414.355C146.699 413.77 146.453 412.938 146.453 411.859V403.996H144.145V402.32H146.453V399.25H148.621ZM167.312 415C167.188 414.75 167.086 414.305 167.008 413.664C166 414.711 164.797 415.234 163.398 415.234C162.148 415.234 161.121 414.883 160.316 414.18C159.52 413.469 159.121 412.57 159.121 411.484C159.121 410.164 159.621 409.141 160.621 408.414C161.629 407.68 163.043 407.312 164.863 407.312H166.973V406.316C166.973 405.559 166.746 404.957 166.293 404.512C165.84 404.059 165.172 403.832 164.289 403.832C163.516 403.832 162.867 404.027 162.344 404.418C161.82 404.809 161.559 405.281 161.559 405.836H159.379C159.379 405.203 159.602 404.594 160.047 404.008C160.5 403.414 161.109 402.945 161.875 402.602C162.648 402.258 163.496 402.086 164.418 402.086C165.879 402.086 167.023 402.453 167.852 403.188C168.68 403.914 169.109 404.918 169.141 406.199V412.035C169.141 413.199 169.289 414.125 169.586 414.812V415H167.312ZM163.715 413.348C164.395 413.348 165.039 413.172 165.648 412.82C166.258 412.469 166.699 412.012 166.973 411.449V408.848H165.273C162.617 408.848 161.289 409.625 161.289 411.18C161.289 411.859 161.516 412.391 161.969 412.773C162.422 413.156 163.004 413.348 163.715 413.348ZM180.848 415H178.68V397H180.848V415ZM186.684 415H184.516V402.32H186.684V415ZM184.34 398.957C184.34 398.605 184.445 398.309 184.656 398.066C184.875 397.824 185.195 397.703 185.617 397.703C186.039 397.703 186.359 397.824 186.578 398.066C186.797 398.309 186.906 398.605 186.906 398.957C186.906 399.309 186.797 399.602 186.578 399.836C186.359 400.07 186.039 400.188 185.617 400.188C185.195 400.188 184.875 400.07 184.656 399.836C184.445 399.602 184.34 399.309 184.34 398.957ZM197.547 411.637C197.547 411.051 197.324 410.598 196.879 410.277C196.441 409.949 195.672 409.668 194.57 409.434C193.477 409.199 192.605 408.918 191.957 408.59C191.316 408.262 190.84 407.871 190.527 407.418C190.223 406.965 190.07 406.426 190.07 405.801C190.07 404.762 190.508 403.883 191.383 403.164C192.266 402.445 193.391 402.086 194.758 402.086C196.195 402.086 197.359 402.457 198.25 403.199C199.148 403.941 199.598 404.891 199.598 406.047H197.418C197.418 405.453 197.164 404.941 196.656 404.512C196.156 404.082 195.523 403.867 194.758 403.867C193.969 403.867 193.352 404.039 192.906 404.383C192.461 404.727 192.238 405.176 192.238 405.73C192.238 406.254 192.445 406.648 192.859 406.914C193.273 407.18 194.02 407.434 195.098 407.676C196.184 407.918 197.062 408.207 197.734 408.543C198.406 408.879 198.902 409.285 199.223 409.762C199.551 410.23 199.715 410.805 199.715 411.484C199.715 412.617 199.262 413.527 198.355 414.215C197.449 414.895 196.273 415.234 194.828 415.234C193.812 415.234 192.914 415.055 192.133 414.695C191.352 414.336 190.738 413.836 190.293 413.195C189.855 412.547 189.637 411.848 189.637 411.098H191.805C191.844 411.824 192.133 412.402 192.672 412.832C193.219 413.254 193.938 413.465 194.828 413.465C195.648 413.465 196.305 413.301 196.797 412.973C197.297 412.637 197.547 412.191 197.547 411.637ZM205.48 399.25V402.32H207.848V403.996H205.48V411.859C205.48 412.367 205.586 412.75 205.797 413.008C206.008 413.258 206.367 413.383 206.875 413.383C207.125 413.383 207.469 413.336 207.906 413.242V415C207.336 415.156 206.781 415.234 206.242 415.234C205.273 415.234 204.543 414.941 204.051 414.355C203.559 413.77 203.312 412.938 203.312 411.859V403.996H201.004V402.32H203.312V399.25H205.48ZM215.77 408.543C215.77 407.301 216.012 406.184 216.496 405.191C216.988 404.199 217.668 403.434 218.535 402.895C219.41 402.355 220.406 402.086 221.523 402.086C223.25 402.086 224.645 402.684 225.707 403.879C226.777 405.074 227.312 406.664 227.312 408.648V408.801C227.312 410.035 227.074 411.145 226.598 412.129C226.129 413.105 225.453 413.867 224.57 414.414C223.695 414.961 222.688 415.234 221.547 415.234C219.828 415.234 218.434 414.637 217.363 413.441C216.301 412.246 215.77 410.664 215.77 408.695V408.543ZM217.949 408.801C217.949 410.207 218.273 411.336 218.922 412.188C219.578 413.039 220.453 413.465 221.547 413.465C222.648 413.465 223.523 413.035 224.172 412.176C224.82 411.309 225.145 410.098 225.145 408.543C225.145 407.152 224.812 406.027 224.148 405.168C223.492 404.301 222.617 403.867 221.523 403.867C220.453 403.867 219.59 404.293 218.934 405.145C218.277 405.996 217.949 407.215 217.949 408.801ZM232.082 402.32L232.152 403.914C233.121 402.695 234.387 402.086 235.949 402.086C238.629 402.086 239.98 403.598 240.004 406.621V415H237.836V406.609C237.828 405.695 237.617 405.02 237.203 404.582C236.797 404.145 236.16 403.926 235.293 403.926C234.59 403.926 233.973 404.113 233.441 404.488C232.91 404.863 232.496 405.355 232.199 405.965V415H230.031V402.32H232.082ZM252.168 399.25V402.32H254.535V403.996H252.168V411.859C252.168 412.367 252.273 412.75 252.484 413.008C252.695 413.258 253.055 413.383 253.562 413.383C253.812 413.383 254.156 413.336 254.594 413.242V415C254.023 415.156 253.469 415.234 252.93 415.234C251.961 415.234 251.23 414.941 250.738 414.355C250.246 413.77 250 412.938 250 411.859V403.996H247.691V402.32H250V399.25H252.168ZM259.246 403.855C260.207 402.676 261.457 402.086 262.996 402.086C265.676 402.086 267.027 403.598 267.051 406.621V415H264.883V406.609C264.875 405.695 264.664 405.02 264.25 404.582C263.844 404.145 263.207 403.926 262.34 403.926C261.637 403.926 261.02 404.113 260.488 404.488C259.957 404.863 259.543 405.355 259.246 405.965V415H257.078V397H259.246V403.855ZM275.559 415.234C273.84 415.234 272.441 414.672 271.363 413.547C270.285 412.414 269.746 410.902 269.746 409.012V408.613C269.746 407.355 269.984 406.234 270.461 405.25C270.945 404.258 271.617 403.484 272.477 402.93C273.344 402.367 274.281 402.086 275.289 402.086C276.938 402.086 278.219 402.629 279.133 403.715C280.047 404.801 280.504 406.355 280.504 408.379V409.281H271.914C271.945 410.531 272.309 411.543 273.004 412.316C273.707 413.082 274.598 413.465 275.676 413.465C276.441 413.465 277.09 413.309 277.621 412.996C278.152 412.684 278.617 412.27 279.016 411.754L280.34 412.785C279.277 414.418 277.684 415.234 275.559 415.234ZM275.289 403.867C274.414 403.867 273.68 404.188 273.086 404.828C272.492 405.461 272.125 406.352 271.984 407.5H278.336V407.336C278.273 406.234 277.977 405.383 277.445 404.781C276.914 404.172 276.195 403.867 275.289 403.867ZM296.359 411.637C296.359 411.051 296.137 410.598 295.691 410.277C295.254 409.949 294.484 409.668 293.383 409.434C292.289 409.199 291.418 408.918 290.77 408.59C290.129 408.262 289.652 407.871 289.34 407.418C289.035 406.965 288.883 406.426 288.883 405.801C288.883 404.762 289.32 403.883 290.195 403.164C291.078 402.445 292.203 402.086 293.57 402.086C295.008 402.086 296.172 402.457 297.062 403.199C297.961 403.941 298.41 404.891 298.41 406.047H296.23C296.23 405.453 295.977 404.941 295.469 404.512C294.969 404.082 294.336 403.867 293.57 403.867C292.781 403.867 292.164 404.039 291.719 404.383C291.273 404.727 291.051 405.176 291.051 405.73C291.051 406.254 291.258 406.648 291.672 406.914C292.086 407.18 292.832 407.434 293.91 407.676C294.996 407.918 295.875 408.207 296.547 408.543C297.219 408.879 297.715 409.285 298.035 409.762C298.363 410.23 298.527 410.805 298.527 411.484C298.527 412.617 298.074 413.527 297.168 414.215C296.262 414.895 295.086 415.234 293.641 415.234C292.625 415.234 291.727 415.055 290.945 414.695C290.164 414.336 289.551 413.836 289.105 413.195C288.668 412.547 288.449 411.848 288.449 411.098H290.617C290.656 411.824 290.945 412.402 291.484 412.832C292.031 413.254 292.75 413.465 293.641 413.465C294.461 413.465 295.117 413.301 295.609 412.973C296.109 412.637 296.359 412.191 296.359 411.637ZM303.707 415H301.539V402.32H303.707V415ZM301.363 398.957C301.363 398.605 301.469 398.309 301.68 398.066C301.898 397.824 302.219 397.703 302.641 397.703C303.062 397.703 303.383 397.824 303.602 398.066C303.82 398.309 303.93 398.605 303.93 398.957C303.93 399.309 303.82 399.602 303.602 399.836C303.383 400.07 303.062 400.188 302.641 400.188C302.219 400.188 301.898 400.07 301.68 399.836C301.469 399.602 301.363 399.309 301.363 398.957ZM306.66 408.555C306.66 406.609 307.121 405.047 308.043 403.867C308.965 402.68 310.172 402.086 311.664 402.086C313.148 402.086 314.324 402.594 315.191 403.609V397H317.359V415H315.367L315.262 413.641C314.395 414.703 313.188 415.234 311.641 415.234C310.172 415.234 308.973 414.633 308.043 413.43C307.121 412.227 306.66 410.656 306.66 408.719V408.555ZM308.828 408.801C308.828 410.238 309.125 411.363 309.719 412.176C310.312 412.988 311.133 413.395 312.18 413.395C313.555 413.395 314.559 412.777 315.191 411.543V405.719C314.543 404.523 313.547 403.926 312.203 403.926C311.141 403.926 310.312 404.336 309.719 405.156C309.125 405.977 308.828 407.191 308.828 408.801ZM325.996 415.234C324.277 415.234 322.879 414.672 321.801 413.547C320.723 412.414 320.184 410.902 320.184 409.012V408.613C320.184 407.355 320.422 406.234 320.898 405.25C321.383 404.258 322.055 403.484 322.914 402.93C323.781 402.367 324.719 402.086 325.727 402.086C327.375 402.086 328.656 402.629 329.57 403.715C330.484 404.801 330.941 406.355 330.941 408.379V409.281H322.352C322.383 410.531 322.746 411.543 323.441 412.316C324.145 413.082 325.035 413.465 326.113 413.465C326.879 413.465 327.527 413.309 328.059 412.996C328.59 412.684 329.055 412.27 329.453 411.754L330.777 412.785C329.715 414.418 328.121 415.234 325.996 415.234ZM325.727 403.867C324.852 403.867 324.117 404.188 323.523 404.828C322.93 405.461 322.562 406.352 322.422 407.5H328.773V407.336C328.711 406.234 328.414 405.383 327.883 404.781C327.352 404.172 326.633 403.867 325.727 403.867ZM344.195 408.801C344.195 410.738 343.75 412.297 342.859 413.477C341.969 414.648 340.773 415.234 339.273 415.234C337.672 415.234 336.434 414.668 335.559 413.535L335.453 415H333.461V397H335.629V403.715C336.504 402.629 337.711 402.086 339.25 402.086C340.789 402.086 341.996 402.668 342.871 403.832C343.754 404.996 344.195 406.59 344.195 408.613V408.801ZM342.027 408.555C342.027 407.078 341.742 405.938 341.172 405.133C340.602 404.328 339.781 403.926 338.711 403.926C337.281 403.926 336.254 404.59 335.629 405.918V411.402C336.293 412.73 337.328 413.395 338.734 413.395C339.773 413.395 340.582 412.992 341.16 412.188C341.738 411.383 342.027 410.172 342.027 408.555ZM354.766 415C354.641 414.75 354.539 414.305 354.461 413.664C353.453 414.711 352.25 415.234 350.852 415.234C349.602 415.234 348.574 414.883 347.77 414.18C346.973 413.469 346.574 412.57 346.574 411.484C346.574 410.164 347.074 409.141 348.074 408.414C349.082 407.68 350.496 407.312 352.316 407.312H354.426V406.316C354.426 405.559 354.199 404.957 353.746 404.512C353.293 404.059 352.625 403.832 351.742 403.832C350.969 403.832 350.32 404.027 349.797 404.418C349.273 404.809 349.012 405.281 349.012 405.836H346.832C346.832 405.203 347.055 404.594 347.5 404.008C347.953 403.414 348.562 402.945 349.328 402.602C350.102 402.258 350.949 402.086 351.871 402.086C353.332 402.086 354.477 402.453 355.305 403.188C356.133 403.914 356.562 404.918 356.594 406.199V412.035C356.594 413.199 356.742 414.125 357.039 414.812V415H354.766ZM351.168 413.348C351.848 413.348 352.492 413.172 353.102 412.82C353.711 412.469 354.152 412.012 354.426 411.449V408.848H352.727C350.07 408.848 348.742 409.625 348.742 411.18C348.742 411.859 348.969 412.391 349.422 412.773C349.875 413.156 350.457 413.348 351.168 413.348ZM366.121 404.266C365.793 404.211 365.438 404.184 365.055 404.184C363.633 404.184 362.668 404.789 362.16 406V415H359.992V402.32H362.102L362.137 403.785C362.848 402.652 363.855 402.086 365.16 402.086C365.582 402.086 365.902 402.141 366.121 402.25V404.266Z" fill="#26C8BA"/>
</svg>
